<?xml version="1.0" standalone="no"?>
<!DOCTYPE svg PUBLIC "-//W3C//DTD SVG 20010904//EN"
 "http://www.w3.org/TR/2001/REC-SVG-20010904/DTD/svg10.dtd">
<svg version="1.0" xmlns="http://www.w3.org/2000/svg"
 width="1920.000000pt" height="1281.000000pt" viewBox="0 0 1920.000000 1281.000000"
 preserveAspectRatio="xMidYMid meet">

<g transform="translate(0.000000,1281.000000) scale(0.100000,-0.100000)"
fill="#000000" stroke="none">
<path d="M0 6405 l0 -6405 5306 0 5306 0 -7 43 c-4 23 -12 45 -17 48 -5 3 -5
14 -2 24 6 14 4 17 -9 12 -11 -4 -14 -2 -11 8 3 7 -1 12 -8 12 -7 -1 -14 2
-15 6 -1 4 -12 17 -25 27 -20 17 -21 21 -8 30 10 6 11 10 3 10 -23 0 -14 22
26 65 36 39 67 85 58 85 -3 0 -22 -16 -43 -35 -41 -37 -91 -56 -163 -61 -62
-4 -78 11 -44 42 14 13 32 24 39 24 8 0 14 6 14 14 0 27 -12 46 -29 46 -10 0
-12 3 -5 8 14 8 0 52 -16 52 -5 0 -10 9 -10 20 0 11 -4 20 -10 20 -5 0 -10 5
-10 10 0 10 -17 32 -60 76 -14 15 -24 32 -22 40 2 8 -5 14 -18 14 -11 0 -19 3
-19 8 3 19 -2 32 -13 29 -7 -1 -14 8 -16 21 -2 12 -11 22 -20 22 -15 0 -15 2
-2 10 12 8 11 10 -7 10 -14 0 -23 6 -23 15 0 8 -4 15 -10 15 -5 0 -10 6 -10
14 0 8 -9 18 -20 21 -11 4 -18 11 -15 16 9 13 -45 100 -57 93 -6 -4 -8 1 -3
15 4 13 2 21 -5 21 -7 0 -10 7 -7 14 4 11 1 13 -10 9 -13 -5 -15 -1 -9 23 5
21 4 25 -3 14 -9 -13 -12 -12 -25 5 -9 11 -16 28 -16 37 0 9 -5 20 -10 23 -6
4 -8 11 -4 16 3 6 -4 18 -15 28 -12 10 -21 23 -21 30 0 6 -5 11 -10 11 -6 0
-9 16 -6 37 2 25 13 44 34 62 40 35 112 119 112 133 0 6 -9 3 -20 -7 -11 -10
-26 -15 -36 -11 -15 6 -16 18 -11 97 4 49 14 103 22 119 8 16 15 42 15 59 l0
29 -43 -41 c-23 -23 -51 -61 -61 -84 -10 -24 -23 -43 -28 -43 -4 0 -8 -6 -8
-14 0 -8 -12 -28 -26 -45 -14 -17 -23 -35 -19 -41 3 -5 -1 -10 -10 -10 -10 0
-15 -6 -12 -13 3 -8 -1 -14 -9 -14 -8 0 -13 6 -10 13 3 8 0 11 -9 8 -11 -5
-13 2 -8 29 3 20 1 37 -6 41 -6 4 -11 17 -11 30 0 12 -5 27 -11 33 -13 13 22
53 45 53 8 0 18 5 21 10 3 6 16 10 28 10 26 0 115 49 141 79 23 26 12 27 -55
5 -59 -20 -156 -14 -191 10 -12 9 -32 16 -43 16 -18 0 -65 39 -65 53 0 18 34
36 57 31 22 -6 25 -4 20 9 -3 9 -2 19 3 22 6 4 10 -1 10 -9 0 -9 5 -16 11 -16
6 0 8 7 5 16 -3 9 -6 20 -6 25 0 6 -5 7 -12 3 -8 -5 -9 -2 -5 11 4 9 3 23 -2
29 -6 6 -12 24 -15 39 -2 15 -8 31 -11 37 -4 6 -2 16 3 23 12 14 4 67 -9 67
-5 0 -9 12 -8 27 0 16 -3 39 -7 52 -6 21 -4 23 11 18 14 -6 16 -3 11 15 -3 13
-6 28 -6 34 0 6 -14 26 -30 44 -32 36 -40 63 -15 54 9 -4 15 0 15 10 0 9 -6
13 -14 10 -8 -3 -17 -1 -21 5 -3 6 1 11 9 11 9 0 16 5 16 10 0 6 -4 10 -9 10
-5 0 -12 14 -16 30 -4 17 -11 30 -17 30 -6 0 -8 3 -5 7 4 3 3 11 -2 17 -6 6
-12 29 -15 51 -6 53 -16 77 -37 92 -9 7 -19 23 -23 37 -3 13 -15 26 -25 29
-15 4 -18 10 -14 27 5 20 3 22 -15 18 -23 -6 -30 6 -9 16 9 5 9 7 -1 12 -6 3
-10 10 -7 15 4 5 -5 20 -19 34 -30 30 -34 47 -8 38 15 -6 15 -5 3 10 -7 9 -17
15 -21 12 -9 -5 -34 53 -31 71 1 6 -5 17 -13 23 -8 7 -12 21 -9 33 5 17 2 19
-18 14 -13 -3 -18 -3 -11 0 9 4 10 10 2 19 -6 7 -12 31 -14 54 -4 49 -7 53
-26 40 -12 -7 -12 -11 -3 -17 10 -6 9 -13 -4 -31 -14 -21 -18 -22 -27 -9 -6 8
-21 18 -33 22 -21 7 -40 36 -24 36 5 0 11 -6 14 -12 3 -9 10 -7 21 7 18 24 21
39 4 29 -7 -4 -8 -3 -4 4 10 16 33 15 39 0 3 -10 9 -9 22 4 17 16 17 17 -2 12
-15 -4 -22 0 -26 15 -3 12 0 21 6 21 6 0 1 10 -10 23 -34 37 -11 65 24 29 10
-11 25 -21 34 -24 14 -5 15 0 7 40 -5 26 -13 61 -18 77 -9 29 -9 29 6 10 9
-11 24 -38 34 -60 30 -66 40 -74 100 -79 30 -2 56 -8 57 -13 5 -14 -68 -14
-86 0 -12 10 -13 9 -6 -3 22 -36 51 -60 69 -58 10 2 21 -3 24 -11 3 -10 0 -12
-12 -8 -29 11 -17 -9 42 -71 31 -34 56 -66 54 -71 -3 -8 41 -85 58 -101 3 -3
6 -9 7 -15 1 -5 21 -44 45 -85 l43 -75 125 -3 c69 -2 314 -9 545 -17 231 -8
428 -15 438 -15 13 0 17 -6 15 -22 -3 -21 -7 -22 -98 -20 -339 9 -995 34
-1002 38 -4 3 -8 3 -8 -1 0 -10 34 -60 47 -68 7 -4 13 -21 13 -37 0 -16 14
-78 31 -137 17 -58 42 -163 55 -232 14 -69 32 -136 39 -148 16 -23 20 -64 8
-62 -23 4 -23 -5 2 -38 16 -21 35 -44 43 -50 10 -8 11 -13 4 -13 -6 0 -18 -15
-25 -32 -19 -44 -45 -66 -98 -82 l-44 -14 48 -1 c32 -1 63 7 97 24 61 31 66
39 45 72 -9 14 -12 22 -6 19 24 -15 43 -69 38 -108 -9 -69 15 -123 198 -433
48 -82 117 -206 153 -275 36 -69 78 -137 94 -152 43 -40 67 -103 69 -178 0
-36 3 -59 6 -51 10 25 42 -70 42 -124 0 -27 -6 -67 -13 -87 -12 -34 -12 -36 5
-35 27 2 69 102 69 166 0 62 -32 164 -66 208 -16 22 -20 31 -9 27 18 -7 70
-115 79 -164 4 -19 22 -60 41 -90 45 -69 94 -197 100 -258 5 -44 4 -43 -9 13
-23 100 -108 287 -123 271 -3 -3 0 -36 7 -73 25 -143 29 -242 15 -332 -8 -47
-15 -101 -15 -118 l0 -33 60 0 c70 0 68 -3 73 130 3 64 3 58 3 -23 l-1 -107
3083 0 c2686 0 3082 2 3082 15 0 7 -8 19 -17 24 -15 8 -11 10 19 11 55 0 64 6
115 79 77 109 175 241 179 241 7 0 -10 -37 -31 -65 -17 -23 -22 -42 -20 -75 1
-24 -2 -48 -7 -54 -33 -38 -88 -138 -82 -147 4 -7 3 -9 -3 -6 -6 4 -16 0 -23
-8 -11 -13 41 -15 443 -15 355 0 456 3 460 13 3 9 9 9 26 0 16 -10 156 -13
606 -13 l585 0 0 6405 0 6405 -9600 0 -9600 0 0 -6405z m13160 3815 c0 -5 -4
-10 -10 -10 -5 0 -10 5 -10 10 0 6 5 10 10 10 6 0 10 -4 10 -10z m30 0 c0 -5
-4 -10 -10 -10 -5 0 -10 5 -10 10 0 6 5 10 10 10 6 0 10 -4 10 -10z m77 4 c-3
-3 -12 -4 -19 -1 -8 3 -5 6 6 6 11 1 17 -2 13 -5z m-327 -755 c0 -5 -11 -10
-25 -10 -14 -1 -32 -2 -42 -3 -33 -2 -24 23 9 26 38 4 58 0 58 -13z m20 -294
c0 -11 -13 -15 -54 -15 -30 0 -57 4 -60 9 -8 12 5 15 65 18 38 2 49 -1 49 -12z
m-190 -5 c0 -5 -7 -10 -15 -10 -8 0 -15 5 -15 10 0 6 7 10 15 10 8 0 15 -4 15
-10z m185 -75 c0 -12 -81 -19 -104 -9 -12 6 -9 9 14 15 40 10 90 6 90 -6z
m149 6 c3 -5 0 -11 -8 -14 -15 -6 -26 1 -26 15 0 11 27 10 34 -1z m-294 -86
c0 -16 -26 -20 -55 -9 -13 5 -14 8 -3 15 22 14 58 10 58 -6z m150 -76 c0 -5
-3 -10 -7 -10 -58 -11 -141 1 -103 15 21 7 82 12 98 8 6 -2 12 -8 12 -13z
m690 15 c0 -8 -19 -13 -24 -6 -3 5 1 9 9 9 8 0 15 -2 15 -3z m-890 -14 c0 -5
-4 -10 -10 -10 -5 0 -10 5 -10 10 0 6 5 10 10 10 6 0 10 -4 10 -10z m777 4
c-3 -3 -12 -4 -19 -1 -8 3 -5 6 6 6 11 1 17 -2 13 -5z m-7 -74 c0 -5 -5 -10
-11 -10 -5 0 -7 5 -4 10 3 6 8 10 11 10 2 0 4 -4 4 -10z m110 0 c0 -5 -4 -10
-10 -10 -5 0 -10 5 -10 10 0 6 5 10 10 10 6 0 10 -4 10 -10z m-770 -10 c0 -5
-7 -10 -15 -10 -8 0 -15 5 -15 10 0 6 7 10 15 10 8 0 15 -4 15 -10z m80 0 c0
-5 -2 -10 -4 -10 -3 0 -8 5 -11 10 -3 6 -1 10 4 10 6 0 11 -4 11 -10z m-190
-80 c0 -5 -4 -10 -10 -10 -5 0 -10 5 -10 10 0 6 5 10 10 10 6 0 10 -4 10 -10z
m110 6 c0 -11 -19 -15 -25 -6 -3 5 1 10 9 10 9 0 16 -2 16 -4z m73 -3 c-7 -2
-19 -2 -25 0 -7 3 -2 5 12 5 14 0 19 -2 13 -5z m7 -73 c0 -5 -4 -10 -10 -10
-5 0 -10 5 -10 10 0 6 5 10 10 10 6 0 10 -4 10 -10z m-85 -80 c3 -5 -1 -10 -9
-10 -9 0 -16 5 -16 10 0 6 4 10 9 10 6 0 13 -4 16 -10z m85 0 c0 -5 -7 -10
-15 -10 -8 0 -15 5 -15 10 0 6 7 10 15 10 8 0 15 -4 15 -10z m-95 -80 c3 -5 1
-10 -4 -10 -6 0 -11 5 -11 10 0 6 2 10 4 10 3 0 8 -4 11 -10z m28 -77 c-7 -2
-19 -2 -25 0 -7 3 -2 5 12 5 14 0 19 -2 13 -5z m54 1 c-3 -3 -12 -4 -19 -1 -8
3 -5 6 6 6 11 1 17 -2 13 -5z m-144 -311 c-7 -2 -21 -2 -30 0 -10 3 -4 5 12 5
17 0 24 -2 18 -5z m147 -67 c0 -2 -7 -7 -16 -10 -8 -3 -12 -2 -9 4 6 10 25 14
25 6z m-5043 -1028 c-3 -8 -6 -5 -6 6 -1 11 2 17 5 13 3 -3 4 -12 1 -19z
m-2720 -165 c-3 -10 -5 -4 -5 12 0 17 2 24 5 18 2 -7 2 -21 0 -30z m2720 -95
c-3 -7 -5 -2 -5 12 0 14 2 19 5 13 2 -7 2 -19 0 -25z m4719 -385 c-3 -8 -2
-12 3 -9 5 3 11 -3 14 -14 3 -11 1 -20 -4 -20 -5 0 -9 5 -9 12 0 6 -2 9 -5 6
-3 -3 2 -24 11 -46 9 -23 14 -47 11 -54 -3 -7 -6 -3 -6 10 -1 12 -5 22 -11 22
-5 0 -9 3 -8 8 0 4 -2 14 -5 22 -3 8 -7 34 -9 57 -3 33 -1 39 10 31 7 -6 11
-17 8 -25z m-4556 -105 c0 -12 -18 -10 -26 3 -3 6 -17 9 -30 6 -27 -5 -33 9
-6 15 20 5 62 -11 62 -24z m-84 -16 c1 -7 0 -8 -3 -2 -2 5 -9 8 -14 4 -5 -3
-9 0 -9 6 0 15 23 7 26 -8z m4641 -34 c-2 -13 -4 -5 -4 17 -1 22 1 32 4 23 2
-10 2 -28 0 -40z m-4561 29 c8 3 14 1 14 -5 0 -15 -43 -8 -48 8 -3 12 -2 12 8
3 7 -6 19 -9 26 -6z m-101 -18 c-3 -4 -12 -6 -20 -3 -8 4 -13 10 -10 15 3 4
12 6 20 3 8 -4 13 -10 10 -15z m120 -19 c8 -13 -5 -13 -25 0 -13 8 -13 10 2
10 9 0 20 -4 23 -10z m2699 0 l408 0 -7 -945 -7 -945 31 0 c19 0 38 -8 48 -20
10 -11 21 -20 24 -20 4 0 5 9 2 20 -4 16 0 20 20 20 14 0 30 -8 36 -17 7 -13
23 -18 67 -18 48 0 59 -3 62 -17 3 -14 -3 -18 -27 -18 -32 0 -44 -19 -13 -21
9 -1 26 -2 37 -3 11 0 20 -8 20 -16 0 -20 -84 -23 -92 -4 -6 17 -24 18 -20 2
1 -10 -22 -13 -95 -11 -74 1 -98 -1 -98 -11 0 -17 14 -19 178 -18 129 1 143
-1 140 -16 -2 -10 -15 -18 -33 -20 -17 -2 -34 -10 -38 -18 -6 -11 -31 -12
-131 -7 l-123 6 0 -309 c-1 -170 1 -298 4 -284 4 25 5 25 91 24 114 -2 110 -1
115 -21 4 -14 5 -13 6 4 1 20 6 21 61 20 42 -1 64 -7 70 -17 5 -8 15 -15 22
-15 7 0 14 -8 16 -17 3 -16 -5 -18 -67 -18 -67 0 -71 1 -72 23 l-2 22 -4 -23
c-4 -23 -5 -23 -125 -17 -95 4 -119 3 -116 -7 4 -10 130 -16 564 -28 517 -14
559 -16 562 -32 3 -14 -3 -18 -25 -18 -15 0 -737 18 -1603 40 -1214 31 -1585
44 -1620 54 -45 14 -44 14 65 15 61 1 532 -10 1049 -24 516 -14 940 -24 942
-23 1 2 4 171 6 376 l3 372 -30 0 c-16 1 -133 3 -260 6 -1561 33 -2113 43
-2235 40 -80 -3 -197 -5 -261 -5 -113 -1 -116 -1 -115 -23 1 -21 -3 -23 -39
-20 -56 3 -85 11 -85 22 0 6 7 10 15 10 8 0 15 5 15 10 0 6 -46 10 -117 10
-100 -1 -115 -3 -100 -14 9 -7 17 -19 16 -27 0 -11 -2 -11 -6 -1 -4 10 -8 10
-19 1 -11 -9 -14 -8 -15 7 0 11 -3 14 -6 7 -7 -18 -23 -16 -23 1 0 8 8 17 18
19 9 3 1 5 -19 6 -34 1 -36 -1 -31 -26 4 -22 2 -25 -12 -20 -10 4 -22 7 -27 7
-16 0 -9 28 9 33 9 3 1 5 -20 6 -31 1 -35 -2 -31 -19 3 -11 0 -20 -6 -20 -6 0
-11 6 -12 13 0 10 -2 10 -6 0 -7 -18 -23 -16 -23 1 0 8 8 17 18 19 9 3 2 5
-15 6 -18 0 -33 -3 -33 -9 0 -5 5 -10 12 -10 6 0 4 -6 -5 -13 -10 -7 -36 -11
-62 -9 -36 3 -43 7 -42 23 1 14 9 19 33 19 18 0 35 -6 37 -12 3 -8 6 -6 6 5 1
13 -7 17 -39 17 -37 0 -39 2 -46 35 -3 20 -4 38 -1 41 3 4 583 -6 1289 -20
1416 -29 1397 -29 1383 -18 -7 5 -7 309 -1 915 4 499 7 910 5 912 -10 9 -2059
17 -2059 8 0 -6 12 -10 28 -9 18 1 27 -4 27 -14 0 -11 -12 -15 -45 -16 -75 -1
-77 1 -79 63 l-1 56 1138 -6 c625 -4 1321 -7 1546 -7z m-2859 -10 c3 -5 -1
-10 -10 -10 -9 0 -13 5 -10 10 3 6 8 10 10 10 2 0 7 -4 10 -10z m155 -45 c0
-5 -5 -3 -10 5 -5 8 -10 20 -10 25 0 6 5 3 10 -5 5 -8 10 -19 10 -25z m-184
-2 c-10 -11 -37 -12 -30 -2 3 5 12 9 21 9 9 0 13 -3 9 -7z m4726 -235 c-8 -34
-10 -13 -10 102 l1 145 9 -102 c6 -64 6 -118 0 -145z m-1255 212 c1 -16 -4
-20 -28 -20 -22 0 -29 5 -29 20 0 15 7 20 28 20 21 0 28 -5 29 -20z m156 7
c-3 -5 3 -5 13 1 20 10 157 8 174 -3 31 -19 -5 -25 -160 -24 -155 0 -170 2
-170 17 0 15 10 18 74 17 41 0 72 -4 69 -8z m-3443 -23 c0 -8 -4 -12 -10 -9
-5 3 -10 13 -10 21 0 8 5 12 10 9 6 -3 10 -13 10 -21z m170 6 c0 -11 -4 -20
-8 -20 -4 0 -8 9 -8 20 0 11 4 20 8 20 4 0 8 -9 8 -20z m3020 12 c0 -13 -12
-22 -22 -16 -10 6 -1 24 13 24 5 0 9 -4 9 -8z m-3412 -24 c-2 -6 -10 -14 -16
-16 -7 -2 -10 2 -6 12 7 18 28 22 22 4z m212 -51 c0 -5 -4 -5 -10 -2 -5 3 -10
14 -10 23 0 15 2 15 10 2 5 -8 10 -19 10 -23z m3358 5 c3 -18 -2 -22 -22 -22
-19 0 -26 5 -26 19 0 36 43 38 48 3z m42 21 c0 -5 27 -7 60 -7 45 1 60 -2 60
-12 0 -11 -17 -14 -70 -14 -63 0 -70 2 -70 20 0 11 5 20 10 20 6 0 10 -3 10
-7z m256 -12 c126 1 134 1 134 -14 0 -9 -30 -12 -126 -11 -69 1 -128 5 -131 8
-3 3 -3 13 1 22 5 12 9 14 20 5 8 -7 50 -11 102 -10z m-3639 -28 c-3 -10 -5
-4 -5 12 0 17 2 24 5 18 2 -7 2 -21 0 -30z m221 18 c-2 -11 -23 -15 -91 -15
-84 -1 -104 4 -94 22 3 4 46 7 96 7 74 0 91 -3 89 -14z m3014 4 c0 -5 -5 -11
-11 -13 -6 -2 -11 4 -11 13 0 9 5 15 11 13 6 -2 11 -8 11 -13z m-3492 -14 c0
-12 -20 -25 -27 -18 -7 7 6 27 18 27 5 0 9 -4 9 -9z m224 -38 c-7 -37 -14 -42
-14 -11 0 21 7 38 16 38 1 0 0 -12 -2 -27z m3276 -8 c0 -8 -7 -15 -16 -15 -14
0 -14 3 -4 15 7 8 14 15 16 15 2 0 4 -7 4 -15z m100 -4 c0 -23 -46 -35 -55
-14 -8 22 3 33 31 33 17 0 24 -6 24 -19z m147 6 c3 -3 2 -11 -2 -17 -5 -8 -28
-11 -66 -8 -60 4 -75 10 -66 25 6 9 125 9 134 0z m62 7 c47 -10 40 -35 -9 -32
-31 1 -40 6 -40 20 0 20 4 21 49 12z m-3844 -35 c-10 -15 -25 -10 -19 6 4 8
10 12 15 9 5 -3 7 -10 4 -15z m245 -20 c0 -6 -6 -25 -14 -42 -8 -18 -17 -39
-19 -47 -4 -10 -6 -7 -6 7 -1 12 4 25 9 28 6 3 10 19 10 36 0 16 5 29 10 29 6
0 10 -5 10 -11z m3438 -22 c2 -12 -3 -17 -17 -17 -12 0 -21 6 -21 13 0 31 32
34 38 4z m150 11 c3 10 7 10 18 1 24 -20 4 -29 -67 -29 -53 0 -69 3 -69 14 0
18 78 26 99 11 10 -7 16 -6 19 3z m-3858 -27 c0 -12 -20 -25 -27 -18 -7 7 6
27 18 27 5 0 9 -4 9 -9z m3708 -49 c2 -14 -2 -22 -12 -22 -19 0 -29 17 -22 36
8 22 30 12 34 -14z m227 -2 c0 -10 -14 -15 -47 -16 -25 -1 -58 -4 -72 -8 -16
-4 -26 -2 -26 4 0 7 -8 9 -21 5 -20 -7 -43 10 -34 25 2 3 47 5 102 4 78 0 98
-3 98 -14z m-3969 -27 c-10 -10 -19 5 -10 18 6 11 8 11 12 0 2 -7 1 -15 -2
-18z m4881 -30 c-3 -10 -5 -2 -5 17 0 19 2 27 5 18 2 -10 2 -26 0 -35z m-4636
0 c-8 -15 -10 -15 -11 -2 0 17 10 32 18 25 2 -3 -1 -13 -7 -23z m59 15 c0 -7
-4 -17 -8 -23 -10 -15 -42 -18 -42 -4 0 12 29 38 43 39 4 0 7 -6 7 -12z m81
-19 c8 -12 11 -12 18 1 12 20 111 15 111 -6 0 -9 -12 -14 -32 -15 -137 -4
-148 -2 -148 21 0 23 36 23 51 -1z m209 1 c0 -14 -7 -20 -23 -20 -13 0 -26 3
-30 6 -12 12 6 34 29 34 17 0 24 -6 24 -20z m240 -1 c0 -14 -10 -16 -56 -15
-30 1 -58 -2 -60 -6 -3 -4 -13 -4 -22 0 -9 5 -29 7 -44 6 -18 -2 -28 2 -28 10
0 20 3 21 109 21 87 0 101 -2 101 -16z m2858 -1 c-3 -25 -34 -36 -50 -20 -17
17 -1 42 27 42 22 0 26 -4 23 -22z m169 8 c12 -2 24 2 26 8 5 14 79 -4 84 -21
4 -9 -28 -12 -129 -10 -114 2 -133 4 -136 18 -3 15 6 16 65 12 37 -2 78 -5 90
-7z m-3885 -38 c-7 -7 -12 -8 -12 -2 0 14 12 26 19 19 2 -3 -1 -11 -7 -17z
m245 -20 c-8 -24 -12 -28 -15 -15 -2 10 2 24 8 32 19 22 20 18 7 -17z m4665
-80 c-4 -187 -8 -205 -10 -50 -1 83 1 152 6 152 4 0 6 -46 4 -102z m-1197 67
c0 -14 -8 -21 -27 -23 -22 -3 -28 1 -28 17 0 10 6 22 13 24 23 10 42 2 42 -18z
m100 10 c27 0 52 3 55 7 9 12 80 -14 80 -29 0 -15 -3 -15 -52 -4 -21 5 -38 6
-38 2 0 -11 -114 -1 -121 11 -10 16 -1 30 14 21 6 -4 34 -7 62 -8z m-195 -10
c0 -8 -7 -15 -15 -15 -16 0 -20 12 -8 23 11 12 23 8 23 -8z m-3622 -17 c-2 -6
-10 -14 -16 -16 -7 -2 -10 2 -6 12 7 18 28 22 22 4z m213 -41 c-8 -8 -11 -7
-11 4 0 9 3 19 7 23 4 4 9 2 11 -4 3 -7 -1 -17 -7 -23z m3466 -4 c2 -6 -3 -13
-12 -16 -10 -5 -15 0 -15 14 0 21 21 22 27 2z m77 11 c24 -9 20 -33 -4 -27
-11 3 -20 12 -20 19 0 16 2 16 24 8z m426 -5 c0 -3 19 -5 43 -5 31 1 42 -3 42
-14 0 -12 -33 -14 -230 -12 -213 2 -255 7 -242 29 6 9 387 11 387 2z m-4199
-32 c-8 -8 -11 -7 -11 4 0 9 3 19 7 23 4 4 9 2 11 -4 3 -7 -1 -17 -7 -23z
m204 -10 c-4 -9 7 -11 40 -9 40 4 45 2 45 -17 0 -12 -5 -21 -11 -21 -6 0 -9 7
-5 15 3 8 1 15 -4 15 -6 0 -10 -6 -10 -14 0 -11 -7 -13 -29 -6 -16 4 -31 7
-33 5 -2 -2 -5 7 -6 20 -1 14 3 25 8 25 5 0 7 -6 5 -13z m3711 -19 c3 -3 22
-4 43 -1 38 5 62 -10 45 -27 -12 -12 -189 2 -187 15 3 17 84 28 99 13z m-3906
-7 c0 -5 -7 -11 -15 -15 -9 -3 -15 0 -15 9 0 8 7 15 15 15 8 0 15 -4 15 -9z
m3775 -2 c4 -6 5 -12 2 -15 -7 -7 -37 7 -37 17 0 13 27 11 35 -2z m-3612 -19
c-7 -25 -23 -27 -18 -2 2 9 4 18 4 20 1 1 5 2 10 2 5 0 7 -9 4 -20z m-173 -30
c-8 -5 -17 -7 -19 -4 -3 3 1 9 9 14 8 5 17 7 19 4 3 -3 -1 -9 -9 -14z m136 -5
c-3 -23 -12 -26 -13 -5 -1 11 2 20 7 20 4 0 7 -7 6 -15z m3592 -13 c3 -18 -1
-22 -22 -22 -19 0 -26 5 -26 18 0 39 43 43 48 4z m145 13 c81 3 87 2 87 -17 0
-18 -6 -19 -99 -16 -55 2 -103 6 -106 10 -4 4 -5 15 -1 24 4 12 10 13 19 6 7
-6 50 -9 100 -7z m-3821 -35 c6 0 9 -3 6 -6 -9 -8 -48 14 -48 27 0 6 7 3 16
-5 8 -9 20 -16 26 -16z m58 -4 c0 -3 -4 -8 -10 -11 -5 -3 -10 -1 -10 4 0 6 5
11 10 11 6 0 10 -2 10 -4z m3580 -46 c0 -5 14 -10 30 -10 17 0 30 5 30 12 0 9
3 9 12 0 7 -7 21 -12 33 -12 12 0 26 5 33 12 9 9 12 9 12 0 0 -16 57 -15 64 1
5 10 7 10 12 0 7 -16 64 -17 64 -1 0 9 3 9 12 0 15 -15 54 -16 63 -2 10 16 43
-22 48 -55 4 -29 4 -29 6 5 0 23 8 39 21 48 11 7 20 8 20 3 0 -6 64 -10 153
-9 83 0 154 -1 157 -2 22 -8 46 -7 57 2 9 7 17 6 28 -5 13 -13 15 -55 15 -273
l0 -257 -387 6 c-214 4 -419 7 -458 7 -65 0 -71 2 -82 25 -6 14 -7 25 -2 25 5
0 9 27 9 60 l0 60 -46 -7 c-41 -5 -46 -4 -43 12 4 19 54 30 65 14 17 -28 23
17 22 157 -1 139 1 157 18 174 21 21 34 25 34 10z m-3720 -28 c0 -4 -5 -13
-12 -20 -7 -7 -16 -12 -20 -12 -13 0 -9 28 5 33 19 8 27 8 27 -1z m130 -7 c0
-19 17 -19 36 -1 15 15 96 11 102 -5 6 -15 22 -10 22 6 0 22 18 18 31 -7 10
-19 13 -20 23 -6 8 10 34 17 84 20 39 3 72 2 72 -1 0 -8 138 -5 174 5 22 5 32
3 42 -11 9 -12 19 -15 31 -9 31 13 233 12 233 -2 0 -17 -31 -27 -44 -14 -5 5
-15 10 -21 10 -5 0 -3 -5 5 -10 10 -7 -41 -9 -157 -8 -95 2 -173 6 -173 10 0
4 -11 3 -25 -2 -14 -5 -49 -7 -78 -4 -28 3 -56 5 -62 5 -75 -5 -425 -4 -425 2
0 4 7 7 15 7 8 0 15 4 15 9 0 6 19 12 43 14 23 2 45 4 50 5 4 1 7 -5 7 -13z
m1177 -10 c-9 -21 14 -31 28 -12 15 20 103 26 114 8 6 -9 15 -8 36 3 20 11 31
12 36 5 4 -7 9 -8 13 -1 9 15 71 -1 71 -18 0 -8 -10 -16 -22 -18 -17 -3 -21 0
-17 12 3 9 2 16 -4 16 -6 0 -12 -4 -14 -9 -5 -16 -43 -18 -40 -2 3 12 0 12
-12 2 -17 -15 -155 -21 -254 -12 -40 4 -75 3 -78 -1 -3 -4 -13 -4 -22 1 -9 4
-23 6 -29 4 -7 -3 -13 2 -13 11 0 12 10 16 40 16 22 0 40 -4 40 -10 0 -5 7
-10 15 -10 8 0 15 4 15 9 0 6 21 12 48 14 26 2 49 4 51 5 2 1 1 -5 -2 -13z
m-237 -9 c0 -8 3 -16 8 -19 4 -2 0 -2 -8 1 -8 3 -23 4 -32 4 -10 0 -18 4 -18
10 0 5 -7 8 -15 4 -8 -3 -15 -1 -15 4 0 6 18 10 40 10 28 0 40 -4 40 -14z
m562 -18 c-9 -9 -12 -7 -12 12 0 19 3 21 12 12 9 -9 9 -15 0 -24z m3325 -30
c-2 -13 -4 -3 -4 22 0 25 2 35 4 23 2 -13 2 -33 0 -45z m-1347 31 c0 -8 4 -9
13 0 15 12 27 5 27 -16 0 -8 -12 -13 -35 -13 -33 0 -46 16 -28 33 10 11 23 8
23 -4z m1347 -101 c-3 -8 -6 -5 -6 6 -1 11 2 17 5 13 3 -3 4 -12 1 -19z
m-4885 -51 c-4 -24 29 -22 35 3 4 14 12 18 27 16 11 -3 40 -5 64 -5 38 -1 43
-4 40 -22 -3 -19 -10 -21 -78 -21 -250 0 -282 2 -277 15 2 6 9 12 15 12 6 0
16 5 21 10 6 6 43 10 83 10 63 -1 73 -3 70 -18z m3578 15 c-1 -34 -62 -43 -68
-10 -2 12 5 16 32 16 20 0 36 -3 36 -6z m1307 -14 c-3 -8 -6 -5 -6 6 -1 11 2
17 5 13 3 -3 4 -12 1 -19z m-5063 -123 c7 -19 26 -20 26 -1 0 17 102 16 108
-2 6 -18 22 -15 22 4 0 11 5 14 16 10 9 -3 22 -6 30 -6 9 0 12 -4 9 -10 -3 -5
1 -10 9 -10 9 0 16 7 16 15 0 8 5 15 10 15 6 0 10 -5 10 -11 0 -5 5 -7 11 -3
10 6 73 7 152 3 46 -3 33 -29 -15 -30 -156 -4 -449 -1 -454 4 -4 3 -4 13 -1
22 8 19 43 20 51 0z m696 -9 c0 5 22 10 50 9 39 0 50 -4 50 -16 0 -13 -13 -16
-67 -18 -36 -1 -70 -4 -74 -7 -4 -2 -10 0 -14 6 -3 5 1 10 9 10 10 0 16 9 16
23 1 21 1 22 15 3 8 -11 15 -15 15 -10z m-116 -3 c-4 -13 -16 -18 -40 -19 -18
-1 -34 2 -34 6 0 4 -12 5 -27 2 -24 -4 -25 -3 -12 11 9 11 31 16 66 17 44 0
50 -2 47 -17z m26 -13 c0 -5 -4 -10 -10 -10 -5 0 -10 5 -10 10 0 6 5 10 10 10
6 0 10 -4 10 -10z m-730 -41 c0 -11 -4 -18 -10 -14 -5 3 -7 12 -3 20 7 21 13
19 13 -6z m166 11 c22 0 34 -5 34 -14 0 -8 -10 -13 -25 -13 -14 0 -25 4 -25 9
0 5 -5 6 -10 3 -6 -4 -24 -8 -40 -10 -25 -3 -30 0 -30 17 0 18 4 20 31 14 17
-3 47 -6 65 -6z m345 0 c4 0 6 -7 3 -15 -4 -9 0 -15 9 -15 8 0 17 6 20 13 7
17 98 22 108 6 4 -7 14 -9 25 -4 30 13 102 16 109 5 3 -5 1 -18 -4 -27 -9 -16
-10 -15 -11 7 -1 21 -2 23 -13 10 -15 -19 -47 -25 -47 -9 0 8 -4 8 -12 2 -7
-6 -44 -10 -81 -9 -38 0 -71 -2 -73 -6 -3 -4 -15 -3 -27 1 -12 5 -86 8 -165 7
-78 0 -138 1 -132 2 5 2 10 10 10 18 0 18 61 19 78 2 10 -10 14 -10 20 -1 5 8
31 12 71 12 34 -1 65 2 69 5 3 4 12 4 20 1 7 -3 18 -5 23 -5z m357 -22 c3 -14
-3 -18 -27 -18 -25 0 -31 4 -31 21 0 16 5 20 27 17 17 -2 29 -10 31 -20z m163
0 c3 -5 17 -2 32 5 14 8 37 13 49 11 13 -1 41 -3 63 -3 36 -1 38 -3 20 -13
-29 -17 -55 -20 -55 -5 0 8 -3 8 -8 1 -13 -20 -42 -25 -49 -8 -3 9 -9 11 -12
6 -3 -5 -45 -11 -93 -14 -84 -4 -87 -4 -69 13 28 26 106 31 122 7z m-1061 8
c0 -3 -4 -8 -10 -11 -5 -3 -10 -1 -10 4 0 6 5 11 10 11 6 0 10 -2 10 -4z
m1350 -16 c0 -12 -9 -15 -37 -14 -21 1 -40 3 -43 4 -3 1 -8 2 -12 1 -8 -1 -11
13 -4 20 2 2 25 4 50 5 36 0 46 -3 46 -16z m30 16 c0 -3 -4 -8 -10 -11 -5 -3
-10 -1 -10 4 0 6 5 11 10 11 6 0 10 -2 10 -4z m-1206 -62 c10 14 46 19 108 17
20 -1 26 -5 22 -16 -4 -9 0 -15 9 -15 8 0 18 7 21 15 4 12 20 15 71 14 56 -2
65 -4 65 -20 0 -11 -4 -19 -10 -19 -5 0 -10 6 -10 13 0 9 -2 9 -8 0 -10 -15
-350 -9 -365 6 -7 7 -6 12 4 15 38 13 55 11 68 -6 12 -16 15 -16 25 -4z m-200
4 c5 -10 7 -10 12 0 8 17 44 15 44 -2 0 -15 -42 -26 -71 -19 -10 3 -19 12 -19
19 0 17 26 18 34 2z m3926 -20 c0 -19 -31 -25 -64 -12 -26 10 0 33 35 32 21
-1 29 -6 29 -20z m710 -60 l235 -3 0 -242 c0 -230 -1 -243 -20 -257 -11 -8
-22 -10 -25 -6 -3 5 -56 8 -119 7 -62 -1 -115 1 -117 5 -8 13 -52 9 -58 -4 -5
-10 -7 -10 -12 0 -7 15 -46 16 -61 1 -9 -9 -16 -8 -27 4 -17 16 -56 12 -56 -6
0 -7 -4 -7 -12 1 -15 15 -51 15 -66 0 -9 -9 -12 -9 -12 -1 0 9 -34 12 -115 10
-63 0 -117 2 -121 6 -12 12 -52 8 -57 -5 -8 -23 -58 40 -52 65 11 46 13 92 4
104 -7 7 -6 14 1 18 15 9 13 102 -2 109 -10 5 -10 7 0 12 7 3 12 26 12 59 0
33 -5 56 -12 59 -10 5 -10 7 0 12 6 3 12 19 12 36 l0 31 223 -6 c122 -4 328
-8 457 -9z m-5060 -64 c0 -2 -9 0 -20 6 -11 6 -20 13 -20 16 0 2 9 0 20 -6 11
-6 20 -13 20 -16z m4318 14 c9 -9 12 -9 12 0 0 7 5 12 10 12 6 0 10 -8 10 -18
0 -14 -8 -19 -30 -20 -23 0 -30 4 -30 19 0 22 11 24 28 7z m-4293 -39 c-4 -5
2 -9 12 -9 10 0 25 -5 33 -10 11 -8 7 -9 -15 -4 l-30 6 29 -16 c16 -9 36 -15
45 -14 9 2 16 -1 15 -7 -1 -5 7 -18 17 -27 21 -19 27 -10 7 10 -7 7 -9 12 -6
12 4 0 37 -29 75 -65 37 -35 76 -65 85 -65 9 0 19 -6 21 -12 4 -10 8 -10 14
-2 15 21 113 21 113 0 0 -18 -117 -31 -136 -15 -10 8 -14 8 -14 0 0 -6 9 -16
19 -23 10 -6 17 -18 14 -25 -3 -7 -1 -19 5 -26 34 -41 78 -227 53 -227 -6 0
-11 -9 -11 -21 0 -18 -4 -20 -32 -14 -18 4 -52 20 -76 36 -23 16 -47 29 -52
29 -6 0 -9 3 -8 8 3 13 -15 66 -33 98 -10 18 -16 40 -14 50 1 11 -8 30 -21 44
-12 14 -39 58 -59 99 -27 55 -35 82 -32 108 4 27 2 33 -10 29 -8 -3 -11 -1 -8
4 3 6 0 13 -8 15 -7 3 -12 16 -11 28 3 30 3 29 14 22 6 -4 8 -11 5 -16z m4325
-99 c0 -15 -6 -19 -27 -18 -51 4 -53 38 -2 38 22 0 29 -5 29 -20z m-3907 -26
c28 -1 77 -22 77 -33 0 -7 -206 -3 -227 4 -7 2 -10 11 -6 21 5 12 16 15 54 12
27 -3 49 -1 49 4 0 5 6 6 13 1 6 -4 25 -8 40 -9z m352 -7 c28 -2 40 -7 40 -17
0 -11 -14 -16 -52 -18 -30 -2 -53 1 -53 7 0 6 -12 6 -35 0 -19 -5 -47 -8 -62
-5 -15 2 -36 5 -45 5 -10 1 -18 8 -18 16 0 11 11 15 40 15 31 0 38 -3 34 -15
-4 -10 0 -15 15 -15 14 0 21 6 21 19 0 16 6 18 38 15 20 -3 55 -6 77 -7z m35
-83 c0 -13 -4 -24 -10 -24 -5 0 -10 8 -10 18 0 12 -3 13 -8 5 -5 -8 -35 -13
-82 -13 -112 -1 -145 3 -145 20 0 11 13 16 48 17 36 2 47 -1 47 -12 0 -19 26
-20 33 -1 3 8 16 12 31 11 14 -2 26 0 26 4 0 4 16 5 35 3 29 -3 35 -8 35 -28z
m-340 18 c0 -13 -12 -22 -22 -16 -10 6 -1 24 13 24 5 0 9 -4 9 -8z m40 -17 c0
-8 -4 -15 -10 -15 -5 0 -10 7 -10 15 0 8 5 15 10 15 6 0 10 -7 10 -15z m3815
-11 c0 -14 -6 -18 -25 -16 -50 7 -53 43 -2 38 19 -2 27 -9 27 -22z m-3911 -55
c-2 -4 -27 -6 -56 -6 -29 1 -45 3 -35 5 9 2 17 10 17 17 0 20 63 24 71 5 4 -8
5 -18 3 -21z m56 16 c0 -8 -4 -15 -9 -15 -13 0 -22 16 -14 24 11 11 23 6 23
-9z m40 -7 c0 -18 -2 -20 -9 -8 -6 8 -7 18 -5 22 9 14 14 9 14 -14z m85 2 c-3
-5 -13 -10 -21 -10 -8 0 -14 5 -14 10 0 6 9 10 21 10 11 0 17 -4 14 -10z m135
-4 c0 -8 -14 -16 -37 -18 -45 -6 -63 -1 -63 18 0 10 14 14 50 14 36 0 50 -4
50 -14z m-605 -36 c3 -5 1 -10 -4 -10 -6 0 -11 5 -11 10 0 6 2 10 4 10 3 0 8
-4 11 -10z m395 -26 c0 -7 -24 -10 -65 -9 -36 1 -68 -2 -71 -6 -8 -13 -44 9
-44 26 0 11 14 13 66 11 36 -1 67 1 70 6 6 10 44 -13 44 -28z m80 1 c0 -8 -9
-15 -20 -15 -11 0 -20 7 -20 15 0 8 9 15 20 15 11 0 20 -7 20 -15z m3730 -16
c0 -15 -7 -19 -33 -19 -19 0 -37 3 -40 7 -12 12 13 30 43 31 23 0 30 -4 30
-19z m90 -82 c0 -20 -9 -25 -31 -20 -18 5 -19 6 -2 19 23 17 33 17 33 1z m63
7 c9 -10 -4 -34 -19 -34 -8 0 -14 6 -14 13 0 22 19 35 33 21z m77 -20 c0 -8
-7 -14 -15 -14 -15 0 -21 21 -9 33 10 9 24 -2 24 -19z m77 10 c8 -20 -13 -42
-27 -28 -12 12 -3 44 11 44 5 0 12 -7 16 -16z m83 -10 c0 -29 -25 -32 -39 -5
-12 22 -9 26 19 28 15 1 20 -4 20 -23z m80 -5 c0 -15 -5 -20 -22 -17 -34 5
-37 38 -4 38 20 0 26 -5 26 -21z m80 8 c0 -20 -9 -25 -31 -20 -33 9 -21 25 24
32 4 0 7 -5 7 -12z m66 2 c10 -17 -13 -36 -27 -22 -12 12 -4 33 11 33 5 0 12
-5 16 -11z m74 -9 c0 -11 -4 -20 -9 -20 -14 0 -23 18 -16 30 10 17 25 11 25
-10z m78 -3 c2 -10 -3 -17 -12 -17 -10 0 -16 9 -16 21 0 24 23 21 28 -4z m89
7 c5 -17 -14 -35 -30 -28 -26 10 -22 45 5 41 12 -2 23 -8 25 -13z m78 -24 c-9
-15 -21 -12 -41 7 -16 17 -16 18 7 23 25 7 45 -12 34 -30z m-4855 20 c0 -5 -8
-10 -17 -10 -15 0 -16 2 -3 10 19 12 20 12 20 0z m290 -10 c0 -5 -4 -10 -10
-10 -5 0 -10 5 -10 10 0 6 5 10 10 10 6 0 10 -4 10 -10z m70 6 c0 -2 -7 -6
-15 -10 -8 -3 -15 -1 -15 4 0 6 7 10 15 10 8 0 15 -2 15 -4z m110 -6 c0 -5 -7
-10 -15 -10 -8 0 -15 5 -15 10 0 6 7 10 15 10 8 0 15 -4 15 -10z m110 -2 c0
-5 -16 -8 -36 -8 -19 0 -33 3 -31 8 3 4 19 7 36 7 17 0 31 -3 31 -7z m60 8 c0
-3 -4 -8 -10 -11 -5 -3 -10 -1 -10 4 0 6 5 11 10 11 6 0 10 -2 10 -4z m-522
-42 c6 -2 12 -19 12 -39 l0 -35 -60 0 c-41 0 -60 -4 -61 -12 0 -10 -2 -10 -6
0 -2 6 -10 12 -17 12 -8 0 -13 17 -15 45 l-2 46 68 -6 c37 -4 74 -8 81 -11z
m-161 -56 c-3 -8 -6 -5 -6 6 -1 11 2 17 5 13 3 -3 4 -12 1 -19z m4686 13 l47
-1 0 -45 0 -45 -79 0 -79 0 0 50 -1 50 32 -4 c18 -2 53 -4 80 -5z m225 -50
c-3 -40 -6 -45 -25 -44 -13 0 -39 1 -58 2 -26 1 -35 6 -36 19 -1 16 -2 16 -6
0 -11 -44 -43 -8 -43 50 0 22 2 23 85 21 l86 -3 -3 -45z m-4800 -9 c2 -7 -1
-12 -6 -12 -18 0 -42 12 -42 21 0 13 43 4 48 -9z m72 -2 c0 -13 -7 -20 -19
-20 -41 0 -29 28 17 39 1 1 2 -8 2 -19z m474 -6 c15 -14 16 -14 16 0 0 10 9
16 25 16 19 0 25 -5 25 -21 0 -19 -5 -20 -62 -17 -50 2 -63 7 -66 21 -4 22 40
24 62 1z m-364 -43 c0 -5 9 -7 21 -4 12 4 25 0 30 -8 7 -12 9 -12 9 0 0 7 6
11 14 8 8 -3 17 -1 20 6 2 7 8 2 11 -10 8 -27 23 -30 32 -8 4 13 20 15 87 11
44 -2 86 -5 91 -6 6 -1 13 -2 18 -1 30 8 110 2 117 -9 5 -9 9 -9 14 -1 12 19
66 14 67 -6 1 -17 2 -17 6 0 5 21 36 22 53 2 16 -19 30 -19 30 -1 0 9 11 13
35 13 19 -1 35 -5 35 -10 0 -6 5 -6 13 0 17 12 67 16 67 5 0 -10 36 -9 46 1
13 13 34 7 34 -10 0 -15 2 -14 14 3 12 15 19 17 33 9 10 -6 60 -10 111 -9 67
1 92 -1 92 -10 0 -7 7 -13 15 -13 8 0 15 6 15 14 0 18 39 17 46 -2 4 -8 12
-15 19 -15 7 0 15 7 19 15 3 9 19 15 41 15 31 0 35 -3 35 -27 l0 -26 -220 7
c-219 7 -220 7 -220 -14 0 -20 1 -20 16 -6 17 18 30 20 38 8 2 -4 48 -6 100
-4 77 2 96 0 96 -11 0 -7 7 -14 15 -14 8 0 15 6 15 14 0 18 39 17 46 -2 4 -8
12 -15 20 -15 8 0 14 7 14 15 0 11 11 15 40 15 37 0 40 -2 40 -26 l0 -27 -220
8 -220 7 0 -22 c0 -19 1 -20 16 -6 18 18 30 20 39 6 4 -6 11 -8 16 -5 5 4 9 0
9 -7 0 -8 3 -9 8 -3 4 6 42 12 85 13 61 3 77 1 77 -11 0 -7 7 -14 15 -14 8 0
15 6 15 14 0 18 39 17 46 -2 4 -8 12 -15 20 -15 8 0 14 7 14 15 0 18 20 20 21
3 0 -10 2 -10 6 0 2 6 15 12 28 12 18 0 23 -5 21 -26 l-1 -26 -217 8 -218 7 1
-24 c0 -17 2 -20 7 -9 9 20 31 24 48 9 8 -6 14 -8 14 -3 0 5 5 2 10 -6 5 -8
10 -10 10 -5 0 6 34 11 75 13 61 2 79 -1 93 -14 16 -16 17 -16 20 -1 4 21 41
22 48 2 4 -8 12 -15 20 -15 8 0 14 7 14 15 0 11 11 15 39 15 35 0 39 -2 37
-25 -1 -24 -4 -25 -64 -25 -60 0 -62 -1 -50 -20 14 -22 39 -27 35 -7 -1 8 11
12 38 12 34 0 40 -3 43 -22 3 -22 0 -23 -62 -23 -64 0 -66 -1 -54 -20 15 -23
38 -27 38 -5 0 8 5 15 10 15 6 0 10 -6 10 -12 0 -10 3 -10 9 0 12 20 46 10 46
-13 0 -16 -8 -21 -42 -23 -38 -3 -42 -5 -40 -28 l2 -25 -195 1 c-347 3 -573
14 -578 28 -2 6 -10 12 -18 12 -8 0 -14 5 -14 10 0 14 33 13 48 -2 8 -8 12 -8
12 -1 0 11 106 10 118 -1 3 -3 12 0 20 7 13 10 14 8 8 -13 -6 -21 -5 -22 4 -7
13 20 86 25 74 5 -6 -10 -5 -10 7 -1 23 19 241 13 234 -6 -4 -11 -2 -11 8 -3
8 7 36 12 63 12 121 1 145 -2 134 -15 -6 -7 -2 -11 11 -12 14 -1 19 3 15 13
-3 9 1 14 11 14 27 0 6 13 -25 15 -16 1 -192 5 -393 9 -364 7 -424 11 -414 26
3 4 -3 7 -12 6 -9 0 -18 4 -20 10 -2 8 21 11 72 12 41 0 75 -4 75 -9 0 -5 10
-5 23 -1 12 4 37 6 55 5 17 -2 43 -3 56 -4 18 -1 23 -6 19 -18 -4 -14 -3 -14
6 1 9 13 27 17 86 17 51 0 75 -4 75 -12 0 -8 3 -8 9 1 10 16 34 12 42 -7 3 -9
8 -10 12 -5 19 32 -10 36 -299 44 -269 6 -292 8 -329 29 l-39 21 136 -3 c75
-1 139 -5 142 -8 3 -3 28 -3 55 1 27 3 59 3 71 -2 12 -4 27 -5 33 -1 7 4 8 0
4 -13 -6 -17 -6 -18 6 -2 16 21 157 25 157 5 0 -9 3 -8 9 1 4 7 12 12 17 11
17 -3 47 1 42 6 -2 3 -110 7 -239 10 -286 7 -479 15 -479 22 0 2 7 11 15 19
19 20 303 13 316 -8 7 -10 9 -10 9 0 0 7 14 12 34 12 19 0 37 -6 39 -12 3 -8
6 -6 6 4 1 15 5 16 27 8 14 -6 31 -7 37 -3 7 4 8 0 4 -13 -7 -18 -6 -18 7 -1
15 20 76 24 76 5 0 -9 3 -9 8 -3 10 16 64 17 74 3 6 -10 8 -10 8 0 0 7 4 11 9
8 5 -4 20 -2 33 3 20 8 16 10 -22 11 -574 12 -712 19 -727 37 -13 17 -14 16
-10 -9 2 -16 2 -28 0 -28 -9 0 -174 84 -178 91 -3 4 2 10 11 13 10 4 13 2 9
-7 -4 -6 -1 -5 7 4 19 23 68 18 108 -12 46 -34 70 -42 70 -24 0 8 -7 15 -16
15 -9 0 -27 9 -41 20 -25 19 -25 20 -4 20 11 0 21 -6 21 -12 0 -10 3 -9 9 1 5
7 14 10 20 7 6 -4 11 0 11 8 0 13 -12 16 -55 16 -52 0 -55 1 -55 25 0 14 5 25
10 25 6 0 10 -4 10 -9z m1370 -47 c0 -8 -10 -14 -25 -14 -18 0 -25 5 -25 19 0
14 6 17 25 13 14 -2 25 -11 25 -18z m238 11 c31 2 51 2 45 -1 -7 -3 -13 -11
-13 -19 0 -10 -24 -12 -106 -9 -59 2 -109 5 -111 8 -12 12 11 26 43 26 24 0
34 -5 34 -15 0 -24 31 -18 38 7 3 12 7 17 9 11 3 -7 24 -10 61 -8z m-238 -71
c0 -8 -10 -14 -25 -14 -18 0 -25 5 -25 19 0 14 6 17 25 13 14 -2 25 -11 25
-18z m100 16 c0 -3 19 -6 42 -5 24 0 43 -5 45 -12 4 -10 -14 -13 -66 -13 -63
0 -71 2 -71 19 0 14 7 19 25 17 14 0 25 -3 25 -6z m168 -18 c2 -7 -1 -12 -6
-12 -6 0 -17 -3 -26 -6 -12 -4 -16 0 -16 15 0 16 5 20 22 18 12 -2 24 -9 26
-15z m76 3 c19 -19 36 -19 36 0 0 11 8 13 33 8 17 -3 38 -11 46 -17 12 -9 13
-8 8 7 -3 9 -2 17 3 17 6 0 10 -5 10 -11 0 -8 4 -8 14 0 7 6 21 9 29 5 14 -5
14 -8 3 -20 -10 -10 -44 -14 -116 -15 -55 -1 -103 1 -107 4 -8 8 4 37 16 37 5
0 16 -7 25 -15z m-344 -61 c0 -8 -10 -14 -25 -14 -18 0 -25 5 -25 19 0 14 6
17 25 13 14 -2 25 -11 25 -18z m160 0 c0 -10 -14 -14 -55 -14 -41 0 -55 4 -55
14 0 11 14 16 48 18 55 4 62 2 62 -18z m2655 16 c4 -6 -10 -10 -37 -9 -40 1
-41 2 -13 9 43 11 43 11 50 0z m42 4 c-3 -3 -12 -4 -19 -1 -8 3 -5 6 6 6 11 1
17 -2 13 -5z m40 0 c-3 -3 -12 -4 -19 -1 -8 3 -5 6 6 6 11 1 17 -2 13 -5z
m131 -31 c50 -30 55 -45 50 -155 -5 -94 -27 -152 -83 -211 -138 -146 -349
-156 -492 -23 -72 66 -108 133 -108 199 0 50 1 52 71 107 36 28 104 61 104 51
0 -6 -4 -11 -10 -11 -15 0 -112 -65 -134 -89 -24 -27 -25 -75 -1 -101 10 -11
43 -25 77 -32 52 -11 57 -14 42 -25 -10 -7 -13 -13 -8 -13 6 0 15 5 22 12 6 6
37 12 69 13 56 2 56 2 35 -15 -19 -16 -20 -20 -7 -30 12 -10 15 -9 15 4 0 9 7
16 16 16 11 0 14 6 9 20 -5 15 -2 20 10 20 11 0 15 -5 11 -15 -3 -9 1 -18 9
-22 12 -4 13 -9 5 -19 -7 -7 -17 -11 -25 -8 -7 3 -16 1 -19 -4 -9 -15 26 -24
36 -10 7 10 11 9 22 -4 18 -24 23 -23 28 7 5 26 -6 35 -15 13 -3 -8 -6 -7 -6
4 -1 9 4 20 9 23 6 3 10 15 10 26 0 10 7 19 15 19 11 0 13 -4 8 -15 -11 -19
-4 -87 8 -80 4 3 5 13 2 22 -4 11 -3 14 5 9 7 -4 12 -2 12 4 0 6 -7 13 -15 16
-8 4 -12 10 -9 16 3 5 11 4 20 -3 11 -9 18 -9 29 1 9 7 13 15 10 18 -2 3 -11
0 -19 -7 -11 -9 -15 -7 -19 8 -3 12 1 22 9 25 8 3 14 0 14 -6 0 -7 6 -4 13 7
8 10 19 15 25 11 7 -4 12 -2 12 4 0 8 12 10 33 6 17 -3 26 -3 20 0 -25 11 -12
24 20 20 17 -3 36 -5 40 -5 5 -1 6 -5 2 -10 -3 -5 -1 -12 5 -16 16 -10 12 21
-5 35 -8 7 -22 10 -30 6 -8 -3 -15 -1 -15 4 0 6 4 10 10 10 5 0 28 16 50 36
41 37 50 67 30 103 -11 21 -79 51 -115 51 -14 0 -25 5 -25 10 0 17 70 0 118
-27z m-298 17 c0 -5 -7 -10 -16 -10 -8 0 -12 5 -9 10 3 6 10 10 16 10 5 0 9
-4 9 -10z m-40 -10 c0 -5 -5 -10 -11 -10 -5 0 -7 5 -4 10 3 6 8 10 11 10 2 0
4 -4 4 -10z m-3960 -16 c0 -8 -4 -12 -10 -9 -5 3 -10 10 -10 16 0 5 5 9 10 9
6 0 10 -7 10 -16z m3920 6 c0 -5 -5 -10 -11 -10 -5 0 -7 5 -4 10 3 6 8 10 11
10 2 0 4 -4 4 -10z m-45 -20 c-3 -5 -10 -10 -16 -10 -5 0 -9 5 -9 10 0 6 7 10
16 10 8 0 12 -4 9 -10z m-2605 -26 c0 -8 -10 -14 -25 -14 -18 0 -25 5 -25 19
0 14 6 17 25 13 14 -2 25 -11 25 -18z m110 -4 c0 -6 5 -10 10 -10 6 0 10 9 10
20 0 17 3 18 26 10 14 -6 30 -7 36 -4 6 4 14 0 19 -7 7 -11 9 -10 9 4 0 12 4
16 13 10 6 -4 22 -6 35 -4 22 2 22 1 7 -16 -15 -17 -61 -21 -197 -14 -29 1
-39 25 -15 34 15 5 47 -10 47 -23z m-113 -54 c-2 -6 -13 -12 -25 -14 -16 -3
-22 2 -22 16 0 15 5 18 25 14 14 -2 24 -10 22 -16z m243 -1 c0 -8 -15 -13 -40
-13 -22 0 -44 -3 -50 -7 -5 -3 -18 -1 -29 5 -13 7 -28 7 -45 0 -23 -8 -26 -7
-26 11 0 19 6 20 95 18 69 -1 95 -5 95 -14z m-242 -53 c2 -7 -1 -12 -6 -12 -6
0 -17 -3 -26 -6 -11 -4 -16 0 -16 13 0 14 6 19 22 18 12 -1 24 -7 26 -13z
m152 -6 c0 -6 5 -4 10 4 9 13 11 13 20 0 7 -12 10 -12 10 -1 0 7 6 11 14 8 8
-3 17 -1 20 6 2 7 5 4 5 -5 1 -20 21 -25 21 -5 0 8 4 7 10 -3 6 -10 10 -11 10
-3 0 18 44 9 48 -10 3 -13 -6 -15 -55 -11 -32 2 -93 4 -135 4 -57 1 -78 4 -78
14 0 20 5 22 54 18 26 -2 46 -9 46 -16z m-233 -52 c2 -6 -7 -14 -21 -16 -29
-6 -37 -1 -30 17 6 15 46 14 51 -1z m140 -9 c-16 -16 -44 -19 -71 -9 -30 11
-16 23 32 26 57 4 58 3 39 -17z m-848 -30 c5 -3 12 -2 14 2 3 5 26 7 51 5 25
-2 44 -8 41 -13 -3 -4 6 -2 21 6 15 8 36 11 48 7 11 -4 56 -7 99 -7 63 0 76
-2 72 -14 -4 -11 -2 -11 8 -2 13 10 33 12 125 12 41 -1 57 -4 70 -18 18 -17
36 -17 29 1 -3 8 2 16 13 19 23 6 30 0 30 -29 0 -20 -4 -22 -42 -19 -24 2
-168 6 -321 10 -228 5 -284 9 -313 22 -18 9 -34 20 -34 23 0 8 76 4 89 -5z
m708 -21 c2 -6 -8 -14 -22 -16 -26 -5 -41 5 -31 21 8 12 49 8 53 -5z m2838 6
c-3 -5 -10 -10 -16 -10 -5 0 -9 5 -9 10 0 6 7 10 16 10 8 0 12 -4 9 -10z
m-2625 -9 c0 -11 -36 -21 -80 -21 -44 0 -80 10 -80 21 0 5 36 9 80 9 44 0 80
-4 80 -9z m-776 -87 c27 -10 18 -21 -15 -16 -22 3 -27 7 -18 13 17 11 14 10
33 3z m89 -1 c4 -4 25 -6 47 -6 38 1 51 -9 30 -22 -14 -9 -140 7 -140 17 0 6
7 8 15 5 8 -4 17 -2 20 3 7 12 19 13 28 3z m167 -23 c0 -11 2 -12 8 -3 11 17
72 29 72 15 0 -6 6 -9 13 -6 8 3 20 -2 27 -11 11 -13 7 -15 -26 -17 -51 -2
-157 3 -166 8 -4 3 -5 11 -2 18 7 19 74 16 74 -4z m420 -167 c-7 -38 -46 -123
-56 -123 -6 0 -6 -1 21 52 19 36 19 38 0 57 -22 25 -13 28 11 4 17 -17 17 -17
11 8 -6 25 -2 39 13 39 4 0 4 -17 0 -37z m59 -87 c-13 -64 -10 -175 6 -241 8
-32 12 -61 10 -63 -8 -9 -26 11 -41 46 -15 35 -15 141 1 307 5 50 6 51 19 21
9 -19 10 -42 5 -70z m3049 -43 c-4 -33 -24 -41 -33 -14 -8 25 1 41 21 41 11 0
14 -8 12 -27z m-73 8 c3 -5 1 -13 -5 -16 -15 -9 -43 3 -35 15 8 13 32 13 40 1z
m155 -14 c0 -18 -5 -23 -22 -22 -32 2 -33 45 -1 45 17 0 23 -6 23 -23z m-2050
-48 c0 -16 0 -32 0 -36 0 -5 -12 -8 -27 -8 -25 0 -28 4 -31 36 -3 34 -1 36 27
37 28 1 31 -2 31 -29z m-519 8 c-1 -12 -15 -9 -19 4 -3 6 1 10 8 8 6 -3 11 -8
11 -12z m637 7 c31 -9 26 -48 -6 -52 -37 -6 -50 4 -45 32 6 27 13 30 51 20z
m-271 -30 c-3 -3 -12 -4 -19 -1 -8 3 -5 6 6 6 11 1 17 -2 13 -5z m-471 -67
c16 6 20 -22 4 -32 -5 -3 -10 -2 -10 4 0 6 -6 8 -14 5 -9 -3 -13 2 -11 18 3
32 7 36 12 16 2 -10 10 -15 19 -11z m-78 -9 c2 -13 -6 -15 -45 -11 -68 6 -93
12 -93 22 0 5 30 8 68 6 51 -2 68 -6 70 -17z m203 10 c6 -9 12 -8 25 3 14 11
18 11 22 1 3 -10 7 -10 18 -1 11 9 14 7 14 -10 0 -20 -5 -21 -84 -21 -68 0
-85 3 -90 16 -4 12 -2 15 9 10 8 -3 15 -2 15 2 0 12 64 12 71 0z m107 -23 c-3
-3 -9 2 -12 12 -6 14 -5 15 5 6 7 -7 10 -15 7 -18z m62 3 c0 -15 -3 -17 -19
-9 -10 6 -21 7 -25 4 -3 -3 -6 1 -6 9 0 10 9 16 25 16 18 0 25 -6 25 -20z m63
2 c3 -11 1 -20 -4 -20 -5 0 -9 8 -9 17 0 15 -1 15 -13 -2 -10 -12 -16 -14 -21
-7 -10 16 2 32 23 32 10 0 21 -9 24 -20z m37 -12 c0 -5 -4 -8 -10 -8 -5 0 -10
10 -10 23 0 18 2 19 10 7 5 -8 10 -18 10 -22z m90 21 c0 -5 -4 -8 -9 -4 -5 3
-12 1 -15 -4 -4 -5 2 -12 11 -14 11 -3 8 -5 -9 -6 -31 -1 -40 25 -10 32 29 8
32 7 32 -4z m253 -2 c58 0 67 -3 67 -19 0 -16 -10 -18 -89 -18 -90 0 -108 7
-97 37 5 11 13 13 29 8 12 -4 52 -8 90 -8z m157 -6 c0 -5 15 -5 35 -1 32 7 35
6 35 -15 0 -21 -5 -23 -45 -23 -35 0 -45 3 -45 16 0 15 -2 15 -10 2 -7 -11
-12 -12 -21 -3 -6 6 -8 16 -5 22 9 13 56 15 56 2z m168 -10 c11 -4 -30 -31
-47 -31 -20 0 -28 19 -15 33 5 4 47 3 62 -2z m125 0 c26 -1 37 -5 37 -16 0 -8
-8 -15 -17 -16 -10 -1 -34 -2 -53 -4 -44 -4 -76 11 -61 29 6 7 21 12 33 10 13
-1 40 -3 61 -3z m135 0 c15 -1 22 -7 22 -21 0 -17 -7 -20 -44 -20 -35 0 -45 4
-49 19 -6 25 0 31 27 26 12 -2 31 -4 44 -4z m147 -21 c0 -16 -5 -24 -14 -22
-7 1 -28 3 -47 4 -25 1 -34 6 -34 18 0 25 7 28 53 26 38 -1 42 -4 42 -26z m96
3 c1 -17 2 -17 6 0 5 17 23 24 23 8 0 -5 9 -7 21 -4 17 5 20 2 17 -13 -3 -15
-12 -19 -48 -19 -34 0 -44 4 -42 14 3 12 0 12 -13 1 -18 -15 -30 -7 -22 15 9
22 57 20 58 -2z m-1617 -29 c3 -8 2 -12 -4 -9 -6 3 -10 10 -10 16 0 14 7 11
14 -7z m36 6 c0 -5 7 -7 15 -4 9 4 15 0 15 -9 0 -23 -46 -19 -47 4 -1 11 2 19
8 19 5 0 9 -4 9 -10z m190 -4 c0 -5 7 -3 15 4 12 10 15 9 15 -7 0 -19 -7 -21
-84 -22 -69 -1 -85 1 -90 15 -4 11 -2 15 6 11 7 -2 22 -1 33 3 27 10 105 7
105 -4z m90 -7 c0 -7 5 -8 13 -3 6 5 26 9 42 8 17 -1 40 -2 53 -3 13 -1 22 -7
22 -17 0 -11 -6 -13 -19 -9 -33 10 -81 14 -81 6 0 -5 -11 -6 -25 -3 -24 4 -36
32 -15 32 6 0 10 -5 10 -11z m190 -9 c0 -11 -4 -20 -8 -20 -4 0 -8 9 -8 20 0
11 4 20 8 20 4 0 8 -9 8 -20z m30 0 c0 -11 -4 -20 -8 -20 -4 0 -8 9 -8 20 0
11 4 20 8 20 4 0 8 -9 8 -20z m345 5 c39 -1 69 -5 68 -8 -2 -4 -3 -13 -3 -20
0 -10 -21 -12 -87 -9 -49 2 -92 8 -97 12 -14 14 14 42 33 33 9 -4 48 -8 86 -8z
m1851 4 c9 -16 -10 -31 -30 -23 -13 5 -14 9 -5 20 14 17 25 18 35 3z m-1686
-8 c0 -4 16 -7 35 -4 30 3 35 0 35 -17 0 -17 -6 -20 -50 -20 -33 0 -50 4 -50
13 0 9 -3 8 -9 -2 -11 -17 -25 3 -17 24 6 16 56 21 56 6z m-575 -11 c3 -5 1
-10 -4 -10 -6 0 -11 5 -11 10 0 6 2 10 4 10 3 0 8 -4 11 -10z m723 -3 c6 -19
0 -27 -21 -27 -29 0 -40 10 -27 25 10 12 43 14 48 2z m268 0 c18 -2 30 -9 32
-20 3 -14 -4 -17 -42 -17 -25 0 -48 5 -51 10 -10 17 3 40 18 34 8 -3 27 -6 43
-7z m-96 -17 c0 -18 -6 -20 -62 -17 -51 2 -63 5 -66 20 -3 15 5 17 62 17 59 0
66 -2 66 -20z m255 -5 c0 -15 -7 -20 -32 -21 -18 -1 -33 3 -33 8 0 6 -7 8 -15
4 -10 -4 -15 1 -15 15 0 18 5 20 48 17 39 -2 47 -6 47 -23z m85 10 c0 -8 4
-15 10 -15 5 0 7 7 4 15 -7 17 11 21 21 5 4 -6 11 -8 16 -5 14 9 29 -4 22 -20
-6 -18 -93 -21 -93 -4 0 5 -4 7 -10 4 -17 -11 -32 5 -19 21 15 19 49 18 49 -1z
m-1670 -24 c0 -29 -15 -33 -18 -5 -1 13 3 24 8 24 6 0 10 -9 10 -19z m70 -5
c0 7 23 11 60 10 33 0 60 -4 60 -9 0 -5 7 -4 15 3 12 10 15 9 15 -7 0 -18 -7
-20 -84 -21 -61 0 -86 3 -90 13 -7 18 6 28 16 13 5 -8 8 -9 8 -2z m1700 4 c0
-5 -4 -10 -10 -10 -5 0 -10 5 -10 10 0 6 5 10 10 10 6 0 10 -4 10 -10z m930
-105 l0 -115 -25 0 -25 0 0 115 0 115 25 0 25 0 0 -115z m-2670 90 c0 -8 -4
-15 -10 -15 -5 0 -10 7 -10 15 0 8 5 15 10 15 6 0 10 -7 10 -15z m250 4 c0 -5
6 -7 12 -3 19 12 49 12 45 0 -2 -5 -20 -12 -40 -14 -28 -3 -37 0 -37 12 0 9 5
16 10 16 6 0 10 -5 10 -11z m127 -13 c-3 -6 -11 -9 -18 -7 -8 2 -20 4 -26 4
-13 0 -17 10 -8 19 10 10 56 -4 52 -16z m26 4 c3 -11 1 -20 -4 -20 -5 0 -9 9
-9 20 0 11 2 20 4 20 2 0 6 -9 9 -20z m37 11 c0 -4 12 -7 27 -5 15 1 31 -3 35
-9 6 -9 8 -9 8 1 0 6 7 12 16 12 9 0 14 -6 11 -12 -2 -8 -25 -14 -60 -14 -50
-2 -57 1 -57 17 0 10 5 19 10 19 6 0 10 -4 10 -9z m215 -1 c3 -5 1 -10 -4 -10
-6 0 -11 5 -11 10 0 6 2 10 4 10 3 0 8 -4 11 -10z m219 -6 c62 -1 70 -3 72
-21 3 -18 -1 -20 -29 -18 -17 2 -60 3 -94 4 -54 1 -63 4 -63 19 0 25 11 34 29
25 9 -4 47 -8 85 -9z m-274 -9 c0 -8 -7 -15 -15 -15 -16 0 -20 12 -8 23 11 12
23 8 23 -8z m440 6 c0 -4 16 -7 35 -5 29 2 35 -1 35 -17 0 -16 -7 -19 -51 -19
-37 0 -48 3 -43 13 6 9 4 9 -8 -1 -19 -15 -33 0 -24 23 6 16 56 21 56 6z m160
-26 c-14 -17 -49 -25 -56 -14 -13 21 4 36 35 31 24 -3 29 -7 21 -17z m-570 11
c0 -3 -4 -8 -10 -11 -5 -3 -10 -1 -10 4 0 6 5 11 10 11 6 0 10 -2 10 -4z m30
-6 c0 -5 -4 -10 -10 -10 -5 0 -10 5 -10 10 0 6 5 10 10 10 6 0 10 -4 10 -10z
m60 0 c0 -5 -4 -10 -10 -10 -5 0 -10 5 -10 10 0 6 5 10 10 10 6 0 10 -4 10
-10z m643 -5 c8 -19 -7 -27 -41 -24 -15 2 -32 1 -37 -3 -12 -7 -55 8 -55 20 0
17 15 22 71 22 41 0 58 -4 62 -15z m125 -8 c3 -14 -5 -17 -42 -17 -25 0 -46 2
-46 4 0 2 -3 12 -6 21 -6 14 0 16 42 12 36 -3 50 -8 52 -20z m130 1 c-2 -17
-10 -23 -30 -25 -15 -1 -30 2 -33 7 -3 5 -12 7 -20 3 -10 -3 -15 2 -15 16 0
19 6 21 51 21 46 0 50 -2 47 -22z m93 0 c1 -22 1 -22 8 2 4 16 9 21 14 13 4
-7 14 -10 22 -7 8 4 18 -1 21 -10 3 -9 10 -13 15 -10 5 3 9 0 9 -5 0 -7 -25
-11 -61 -11 -37 0 -58 4 -54 10 3 6 1 10 -4 10 -6 0 -11 -5 -11 -12 0 -9 -3
-9 -11 -1 -18 18 -2 43 26 43 19 0 25 -5 26 -22z m-1741 -18 c0 -11 -4 -20
-10 -20 -5 0 -10 9 -10 20 0 11 5 20 10 20 6 0 10 -9 10 -20z m192 -4 c5 -8 8
-7 8 2 0 6 5 12 10 12 6 0 10 -8 10 -19 0 -16 -9 -18 -90 -18 -70 1 -90 4 -90
15 0 8 6 12 15 8 8 -3 15 -2 15 3 0 12 114 10 122 -3z m-162 -5 c0 -6 -4 -13
-10 -16 -5 -3 -10 1 -10 9 0 9 5 16 10 16 6 0 10 -4 10 -9z m280 -7 c0 -9 -12
-14 -35 -14 -30 0 -34 2 -23 14 7 7 23 14 35 14 13 0 23 -7 23 -14z m60 -5 c0
-18 -2 -19 -15 -9 -8 7 -15 9 -15 6 0 -4 -6 -4 -12 0 -9 6 -5 10 12 15 14 4
26 7 28 8 1 1 2 -9 2 -20z m32 -11 c-15 -15 -26 -4 -18 18 5 13 9 15 18 6 9
-9 9 -15 0 -24z m38 0 c0 -5 -4 -8 -10 -8 -5 0 -10 10 -10 23 0 18 2 19 10 7
5 -8 10 -18 10 -22z m83 23 c37 -2 10 -26 -31 -27 -33 -1 -40 1 -39 16 1 14 8
18 27 15 14 -1 33 -3 43 -4z m101 -32 c-7 -12 -54 3 -54 17 0 17 27 18 33 2 3
-7 6 -4 7 7 l1 20 8 -20 c5 -11 7 -23 5 -26z m29 21 c3 -11 1 -23 -4 -26 -5
-3 -9 6 -9 20 0 31 6 34 13 6z m222 5 c62 -2 70 -4 70 -21 0 -18 -7 -19 -90
-16 -50 2 -94 7 -99 12 -14 14 14 42 33 33 9 -4 48 -8 86 -8z m165 -4 c0 -4
16 -7 35 -4 30 3 35 0 35 -17 0 -17 -6 -20 -50 -20 -33 0 -50 4 -50 13 0 9 -3
8 -9 -2 -11 -17 -25 3 -17 24 6 16 56 21 56 6z m153 -27 c-5 -14 -44 -19 -56
-7 -13 12 13 30 37 26 16 -3 23 -10 19 -19z m-473 6 c0 -5 -4 -10 -10 -10 -5
0 -10 5 -10 10 0 6 5 10 10 10 6 0 10 -4 10 -10z m640 -10 c0 -18 -6 -20 -62
-17 -51 2 -63 5 -66 20 -3 15 5 17 62 17 59 0 66 -2 66 -20z m125 -6 c0 -16
-6 -18 -40 -15 -48 4 -55 7 -55 27 0 12 10 14 48 11 38 -3 47 -7 47 -23z m130
1 c0 -15 -7 -20 -32 -21 -18 -1 -33 2 -33 7 0 5 -7 6 -15 3 -10 -4 -15 0 -15
15 0 20 5 22 48 19 39 -2 47 -6 47 -23z m85 10 c0 -8 4 -15 10 -15 5 0 7 7 4
15 -7 17 11 21 21 5 4 -6 11 -8 16 -5 14 9 29 -4 22 -20 -6 -18 -93 -21 -93
-4 0 8 -4 8 -14 0 -18 -15 -30 11 -13 28 16 16 47 14 47 -4z m-1620 -25 c23
12 92 9 103 -5 6 -6 10 -6 14 3 7 18 23 14 23 -6 0 -17 -8 -18 -87 -15 -47 2
-88 5 -91 7 -2 3 0 10 4 17 6 10 9 10 12 1 2 -8 9 -9 22 -2z m1720 0 c0 -5 -5
-10 -11 -10 -5 0 -7 5 -4 10 3 6 8 10 11 10 2 0 4 -4 4 -10z m-1490 -15 c0
-11 -11 -15 -35 -15 -31 0 -34 2 -23 15 17 19 58 19 58 0z m60 -6 c0 -18 -2
-19 -15 -9 -8 7 -15 9 -15 6 0 -4 -6 -4 -12 0 -9 6 -5 10 12 15 14 4 26 7 28
8 1 1 2 -9 2 -20z m22 -1 c-7 -7 -12 -8 -12 -2 0 14 12 26 19 19 2 -3 -1 -11
-7 -17z m41 2 c3 -11 1 -20 -4 -20 -5 0 -9 9 -9 20 0 11 2 20 4 20 2 0 6 -9 9
-20z m95 7 c6 -19 -1 -24 -37 -24 -31 0 -39 4 -38 18 1 13 9 16 37 15 19 -1
36 -5 38 -9z m92 -7 c0 -15 -7 -20 -25 -20 -16 0 -25 6 -25 15 0 18 26 20 33
3 3 -8 6 -6 6 5 1 24 11 22 11 -3z m33 0 c3 -11 1 -20 -4 -20 -5 0 -9 9 -9 20
0 11 2 20 4 20 2 0 6 -9 9 -20z m220 5 c37 -1 67 -4 67 -8 0 -4 0 -13 0 -19 0
-15 -169 -13 -184 2 -14 14 14 42 33 34 9 -4 46 -8 84 -9z m162 -4 c-3 -6 11
-8 35 -5 35 4 40 2 40 -16 0 -17 -6 -20 -50 -20 -33 0 -50 4 -50 13 0 9 -3 8
-9 -2 -6 -9 -10 -10 -16 -2 -12 20 3 41 30 41 15 0 24 -4 20 -9z m164 -10 c2
-1 -2 -8 -9 -16 -15 -19 -60 -20 -60 -2 0 24 14 28 69 18z m-479 -11 c0 -5 -4
-10 -10 -10 -5 0 -10 5 -10 10 0 6 5 10 10 10 6 0 10 -4 10 -10z m640 -10 c0
-18 -6 -20 -62 -17 -51 2 -63 5 -66 20 -3 15 5 17 62 17 59 0 66 -2 66 -20z
m125 0 c0 -24 -89 -21 -93 3 -3 16 3 18 45 15 35 -2 48 -7 48 -18z m130 -5 c0
-15 -7 -20 -32 -21 -18 -1 -33 3 -33 8 0 6 -7 8 -15 4 -10 -4 -15 1 -15 15 0
18 5 20 48 17 39 -2 47 -6 47 -23z m85 10 c0 -8 5 -15 11 -15 5 0 8 4 4 9 -3
5 -1 12 4 15 5 4 12 2 16 -4 4 -6 11 -8 16 -5 14 9 29 -4 22 -20 -6 -18 -93
-21 -93 -4 0 8 -4 8 -14 0 -18 -15 -30 11 -13 28 16 16 47 14 47 -4z m-1482
-38 c3 -15 -6 -17 -71 -17 -55 0 -76 4 -80 14 -9 22 1 25 77 23 57 -3 72 -6
74 -20z m1582 13 c0 -5 -5 -10 -11 -10 -5 0 -7 5 -4 10 3 6 8 10 11 10 2 0 4
-4 4 -10z m-1647 -59 c4 -1 7 -10 7 -22 0 -29 -54 -23 -58 7 -2 16 2 20 20 18
13 -1 26 -3 31 -3z m155 -10 c8 0 12 -9 10 -18 -3 -15 -12 -17 -63 -14 -67 3
-70 4 -62 24 4 12 47 15 115 8z m72 -10 c0 -11 -5 -23 -11 -27 -15 -9 -33 12
-26 30 9 23 37 20 37 -3z m178 -15 c2 -15 -2 -26 -8 -26 -7 0 -9 7 -6 16 5 13
3 14 -6 6 -7 -5 -37 -12 -66 -13 -43 -3 -53 -1 -58 13 -9 30 3 35 73 33 66 -2
68 -3 71 -29z m32 -6 c0 -5 -5 -10 -11 -10 -5 0 -7 5 -4 10 3 6 8 10 11 10 2
0 4 -4 4 -10z m2110 -138 c0 -19 -23 -32 -37 -21 -20 17 -15 29 12 29 14 0 25
-4 25 -8z m-101 -98 c-16 -19 -29 -17 -29 4 0 26 11 34 27 21 10 -9 10 -15 2
-25z m-9589 -305 c0 -5 4 -7 10 -4 5 3 17 2 26 -3 20 -11 7 -21 -34 -26 -23
-2 -32 1 -35 15 -3 10 -2 20 1 23 9 10 32 7 32 -5z m8602 -836 c-6 -2 -10 -8
-7 -13 7 -11 -22 -33 -35 -25 -5 3 -10 15 -10 26 0 15 7 19 33 18 17 0 26 -3
19 -6z m1478 -783 c-24 -19 -40 -25 -40 -15 0 5 51 34 60 34 3 0 -6 -8 -20
-19z m-1251 6 c-2 -3 -41 -6 -86 -8 -45 -2 -77 0 -70 4 12 8 164 11 156 4z
m327 -7 c84 -15 134 -29 134 -37 0 -4 -15 -14 -33 -22 -20 -9 -58 -50 -101
-107 -61 -82 -76 -97 -134 -125 -62 -31 -75 -33 -184 -37 -122 -3 -226 9 -287
35 l-36 15 40 25 c26 17 31 23 15 18 -14 -4 -35 -8 -47 -7 -14 0 -20 -3 -16
-10 3 -5 1 -7 -5 -4 -5 4 -8 17 -5 28 5 18 7 19 15 5 5 -9 14 -16 21 -16 7 0
6 4 -3 10 -12 7 -12 12 -2 22 9 9 12 9 12 -5 0 -9 7 -17 15 -17 8 0 15 8 15
18 0 14 2 15 10 2 8 -12 10 -11 10 6 0 18 -5 21 -35 18 -19 -1 -35 2 -35 7 0
5 6 9 14 9 21 0 98 43 103 58 3 6 12 12 21 12 13 0 12 3 -4 15 -13 10 -15 14
-5 15 8 0 22 6 30 13 21 18 89 37 132 37 19 1 45 7 59 15 31 17 198 20 286 4z
m-669 -221 c-3 -8 -6 -5 -6 6 -1 11 2 17 5 13 3 -3 4 -12 1 -19z m6303 -28 c0
-5 -4 -10 -10 -10 -5 0 -10 5 -10 10 0 6 5 10 10 10 6 0 10 -4 10 -10z m-162
-70 c-13 -20 -28 -27 -28 -12 0 10 22 32 32 32 5 0 3 -9 -4 -20z m-6578 -276
c0 -8 -5 -12 -10 -9 -6 4 -8 11 -5 16 9 14 15 11 15 -7z m6653 -15 c-8 -8 -16
-8 -30 0 -16 9 -14 10 12 11 21 0 26 -3 18 -11z"/>
<path d="M8110 6192 c0 -5 7 -9 15 -9 8 0 15 4 15 9 0 4 -7 8 -15 8 -8 0 -15
-4 -15 -8z"/>
<path d="M10290 6188 c-6 -41 -9 -247 -15 -962 -5 -561 -11 -863 -18 -867 -15
-10 146 -18 511 -24 183 -3 346 -8 363 -12 24 -5 29 -10 29 -36 0 -42 10 -29
14 19 3 40 3 40 -31 36 l-33 -4 0 96 0 96 -30 0 c-16 0 -30 5 -30 11 0 8 -4 8
-12 1 -15 -11 -187 -22 -193 -12 -2 4 -24 5 -47 3 -24 -2 -52 -3 -63 -2 -11 1
-45 2 -75 2 -30 0 -49 2 -42 4 6 3 12 11 12 19 0 20 96 20 104 -1 3 -8 10 -15
16 -15 5 0 10 7 10 15 0 11 12 15 45 15 31 0 47 -5 51 -15 8 -19 24 -20 24 -1
0 11 11 14 50 10 33 -3 50 0 50 7 0 8 4 8 14 0 7 -6 36 -11 63 -10 l50 2 6
465 c4 256 7 621 7 812 l0 346 -415 3 c-228 1 -415 1 -415 -1z m125 -33 c0
-13 -7 -20 -20 -20 -18 0 -27 19 -17 38 8 16 37 1 37 -18z m-83 0 c0 -5 -5
-11 -11 -13 -6 -2 -11 4 -11 13 0 9 5 15 11 13 6 -2 11 -8 11 -13z m228 -5 c0
-14 -10 -19 -42 -22 -45 -5 -79 8 -72 27 3 6 29 11 59 12 47 1 55 -2 55 -17z
m69 -6 c-17 -21 -59 -18 -59 4 0 15 6 17 35 14 29 -3 33 -7 24 -18z m-211 -51
c-2 -10 -12 -18 -23 -18 -11 0 -21 8 -23 18 -3 13 3 17 23 17 20 0 26 -4 23
-17z m140 -3 c3 -9 6 -9 11 -1 4 6 41 12 84 14 63 2 77 -1 77 -13 0 -9 3 -11
8 -5 4 6 22 12 40 13 24 3 32 -1 32 -12 0 -16 4 -16 -333 -19 -32 0 -39 5 -32
24 7 18 107 18 113 -1z m-218 0 c0 -5 -7 -10 -15 -10 -8 0 -15 5 -15 10 0 6 7
10 15 10 8 0 15 -4 15 -10z m120 -61 c0 -15 -4 -19 -16 -15 -9 3 -20 6 -25 6
-16 0 -10 18 9 23 30 8 32 7 32 -14z m126 8 c8 3 14 -1 14 -11 0 -9 7 -16 15
-16 8 0 15 6 15 13 0 12 16 13 78 8 6 -1 12 -8 12 -16 0 -15 -24 -16 -45 -3
-6 3 -21 0 -35 -7 -13 -7 -33 -10 -45 -6 -11 3 -41 6 -67 6 -38 0 -48 4 -48
16 0 12 8 16 28 14 16 -1 34 -5 40 -9 8 -4 12 0 13 11 0 10 3 13 5 6 3 -7 12
-9 20 -6z m-126 -73 c0 -8 -10 -14 -25 -14 -29 0 -35 26 -7 33 22 5 32 -1 32
-19z m88 -4 c12 -13 13 -13 9 1 -4 13 1 16 19 15 13 0 24 -6 24 -13 0 -6 6
-13 13 -16 25 -9 0 -13 -65 -9 -56 3 -68 7 -68 21 0 22 49 22 68 1z m172 -6
c0 -8 7 -14 15 -14 8 0 15 9 15 19 0 17 6 18 43 14 23 -3 47 -12 53 -19 10
-13 12 -13 17 0 7 18 74 26 94 11 11 -8 12 -14 5 -19 -13 -8 -148 -10 -179 -2
-13 2 -25 0 -29 -5 -7 -12 -76 0 -86 15 -5 8 -8 7 -8 -1 0 -18 -27 -16 -33 1
-8 20 -4 22 47 18 31 -3 46 -9 46 -18z m-262 -51 c-2 -12 -11 -17 -23 -15 -28
5 -32 12 -15 22 24 15 42 11 38 -7z m192 -1 c-1 -18 -19 -34 -30 -27 -7 5 -42
7 -77 6 -48 -2 -63 1 -63 12 0 7 2 16 4 18 7 7 166 -2 166 -9z m-192 -60 c5
-15 -23 -26 -45 -17 -17 6 -17 7 2 21 21 16 37 14 43 -4z m115 -4 c-2 -5 -3
-13 -3 -19 0 -8 -15 -10 -45 -6 -49 5 -60 10 -51 25 6 11 102 10 99 0z m-113
-64 c0 -8 -10 -14 -24 -14 -34 0 -42 18 -14 29 27 10 38 6 38 -15z m130 3 c0
-4 9 -3 19 3 27 14 31 13 32 -7 1 -14 2 -15 5 -3 6 21 74 15 74 -6 0 -11 -24
-14 -120 -14 -108 0 -120 2 -120 18 0 14 9 17 55 17 30 0 55 -3 55 -8z m-132
-64 c-2 -10 -7 -17 -11 -15 -4 1 -17 2 -29 2 -22 1 -23 1 -4 15 27 20 48 19
44 -2z m191 -3 c1 13 2 13 11 0 6 -10 10 -11 10 -3 0 16 42 11 48 -5 2 -7 10
-12 18 -12 7 0 11 6 8 13 -4 10 8 14 46 13 41 0 50 -3 50 -18 0 -12 -6 -17
-20 -15 -11 2 -22 6 -26 10 -4 3 -20 -1 -35 -9 -18 -9 -36 -11 -47 -7 -9 5
-65 8 -124 8 -96 0 -108 2 -108 17 0 15 10 17 70 16 38 -1 73 2 77 6 4 4 11
-1 14 -11 6 -13 8 -14 8 -3z m-191 -58 c5 -15 -23 -26 -45 -17 -17 6 -17 7 2
21 21 16 37 14 43 -4z m93 -12 c6 -10 11 -12 17 -4 14 20 41 24 52 6 8 -12 13
-14 16 -4 7 15 104 17 104 2 0 -5 7 -10 15 -10 8 0 15 6 15 13 0 10 12 11 48
7 51 -5 56 -24 7 -27 -62 -5 -347 -4 -352 1 -3 3 -3 11 0 18 7 18 66 16 78 -2z
m-96 -56 c0 -14 -6 -18 -24 -16 -35 4 -39 11 -16 28 24 18 40 13 40 -12z m165
-1 c0 -17 17 -17 22 -1 6 17 172 16 174 -1 3 -24 5 -25 15 -8 8 13 23 17 69
17 54 0 60 -2 60 -21 0 -20 -3 -20 -241 -15 -133 3 -244 8 -247 10 -2 3 -2 11
0 18 7 18 148 19 148 1z m-165 -64 c0 -8 -10 -14 -24 -14 -29 0 -40 21 -14 28
26 7 38 2 38 -14z m114 5 c25 -8 -4 -25 -47 -27 -26 -2 -43 2 -46 10 -10 25
39 34 93 17z m-111 -62 c5 -15 -23 -26 -45 -17 -17 6 -17 7 2 21 21 16 37 14
43 -4z m145 -16 c5 -8 9 -7 15 2 6 8 33 14 75 15 58 2 67 0 72 -18 5 -18 6
-19 18 -3 20 25 107 28 107 3 0 -16 -16 -18 -210 -16 -58 1 -126 1 -151 1 -32
-1 -48 4 -52 14 -3 8 -3 16 0 19 9 9 118 -6 126 -17z m-150 -51 c-3 -13 -53
-20 -53 -7 0 15 13 23 35 20 11 -2 19 -7 18 -13z m138 5 c19 0 29 -5 29 -15 0
-8 5 -15 10 -15 6 0 10 7 10 15 0 11 11 15 40 15 30 0 40 -4 40 -16 0 -12 -7
-15 -30 -12 -17 3 -33 2 -35 -2 -3 -5 -108 -5 -177 0 -5 0 -8 6 -8 14 0 14 50
26 78 19 8 -1 27 -3 43 -3z m-269 -82 c-9 -9 -12 -7 -12 12 0 19 3 21 12 12 9
-9 9 -15 0 -24z m88 12 c0 -13 -7 -20 -20 -20 -13 0 -20 7 -20 20 0 13 7 20
20 20 13 0 20 -7 20 -20z m183 6 c45 -2 92 1 105 5 17 7 22 5 22 -7 0 -11 4
-14 13 -7 6 5 48 8 92 7 144 -3 145 -3 139 -18 -5 -12 -37 -15 -170 -15 -112
0 -164 3 -164 11 0 7 -4 7 -12 0 -7 -5 -39 -10 -70 -11 -32 0 -61 -1 -65 -2
-21 -3 -51 14 -46 26 5 13 50 25 66 17 4 -2 45 -5 90 -6z m-188 -71 c0 -27
-31 -32 -38 -6 -6 24 1 33 23 29 8 -2 15 -12 15 -23z m-74 0 c-1 -15 -24 -12
-29 3 -3 9 2 13 12 10 10 -1 17 -7 17 -13z m417 0 c17 -16 -27 -24 -153 -26
-143 -3 -168 1 -159 25 4 10 39 12 155 10 83 -2 154 -5 157 -9z m-294 -53 c9
-16 -10 -31 -32 -25 -22 5 -27 14 -15 26 9 10 41 9 47 -1z m344 -7 c18 0 37
-7 43 -15 8 -13 10 -13 19 0 6 11 22 15 47 14 53 -2 53 -2 53 -19 0 -11 -13
-15 -52 -17 -29 0 -60 0 -68 1 -8 1 -76 3 -150 5 -74 2 -154 4 -177 5 -31 1
-43 5 -43 16 0 12 14 15 70 15 56 0 70 -3 70 -15 0 -8 7 -15 15 -15 8 0 15 7
15 14 0 11 15 16 53 18 28 2 57 1 62 -2 6 -2 25 -5 43 -5z m-345 -59 c7 -19
-1 -26 -30 -26 -27 0 -32 26 -5 33 29 8 30 7 35 -7z m239 -6 c10 0 15 -5 12
-13 -3 -8 -26 -14 -62 -15 -31 -1 -66 -3 -77 -4 -11 -1 -37 -1 -58 0 -30 2
-38 6 -35 19 2 12 15 18 41 21 30 3 37 0 38 -15 1 -17 2 -17 6 0 4 14 11 17
28 13 13 -3 34 -2 47 3 13 5 27 5 33 0 5 -5 17 -9 27 -9z m148 -15 c0 -8 5
-15 10 -15 6 0 10 7 10 15 0 11 12 15 50 15 38 0 50 -4 50 -15 0 -16 0 -16
-171 -19 -70 -1 -75 0 -65 17 15 23 116 25 116 2z m-390 -51 c0 -8 -10 -14
-25 -14 -29 0 -33 15 -8 29 21 11 33 6 33 -15z m213 -9 c9 -17 11 -17 21 -3 7
9 26 18 44 21 26 4 32 2 32 -13 0 -21 -19 -27 -75 -24 -22 1 -79 3 -127 3 -78
0 -88 2 -88 18 0 16 10 18 91 17 77 -1 94 -5 102 -19z m-215 -52 c-2 -12 -11
-17 -23 -15 -28 5 -32 12 -15 22 24 15 42 11 38 -7z m126 6 c66 -1 86 -4 86
-15 0 -8 7 -14 15 -14 8 0 15 6 15 14 0 7 9 16 20 19 11 3 20 1 20 -5 0 -5 10
-9 23 -8 12 1 31 2 42 1 17 -1 17 -3 5 -15 -19 -19 -132 -25 -152 -8 -8 6 -18
9 -21 5 -6 -5 -77 -7 -144 -4 -7 1 -13 10 -13 22 0 11 4 18 9 15 5 -3 47 -6
95 -7z m-124 -69 c0 -15 -7 -20 -25 -20 -29 0 -35 26 -7 33 30 8 32 7 32 -13z
m212 -11 c7 -11 11 -11 15 -1 6 14 99 17 108 3 12 -20 -6 -21 -222 -22 -85 0
-93 1 -93 19 0 17 8 18 91 17 66 -1 93 -5 101 -16z m-215 -63 c-4 -9 -13 -12
-26 -9 -26 7 -28 30 -3 36 22 5 36 -8 29 -27z m211 0 c4 -20 18 -21 26 -1 4
10 20 15 51 15 36 0 45 -3 45 -17 0 -15 -9 -18 -63 -17 -34 0 -66 2 -72 3 -5
1 -45 2 -87 1 -82 -1 -100 3 -92 23 3 8 32 12 97 11 76 -2 93 -5 95 -18z
m-210 -53 c-2 -10 -7 -17 -11 -15 -4 1 -17 2 -29 2 -22 1 -23 1 -4 15 27 20
48 19 44 -2z m126 6 c66 -1 86 -4 86 -15 0 -18 16 -18 23 -1 3 8 16 13 29 11
12 -1 33 -3 46 -3 37 -2 27 -31 -10 -31 -18 0 -46 0 -63 -1 -75 -1 -214 7
-221 13 -9 10 4 40 15 34 5 -3 47 -6 95 -7z m-124 -75 c0 -8 -10 -14 -24 -14
-34 0 -42 18 -14 29 27 10 38 6 38 -15z m233 7 c16 -1 26 -5 22 -10 -10 -17
16 -23 28 -7 7 9 27 18 45 20 29 3 33 1 30 -17 -3 -21 -7 -21 -143 -18 -195 4
-199 4 -203 21 -3 15 1 15 221 11z m-235 -68 c-2 -13 -11 -17 -28 -15 -30 5
-34 8 -25 21 3 6 17 11 31 11 19 0 25 -5 22 -17z m195 7 c53 0 67 -3 67 -15 0
-20 16 -19 24 1 3 8 14 14 23 12 10 -1 24 1 31 5 8 6 12 1 12 -17 0 -23 -4
-26 -37 -28 -21 0 -45 0 -53 1 -15 3 -89 7 -192 11 -46 2 -58 5 -58 19 0 13
10 16 58 14 31 -1 87 -2 125 -3z m-195 -68 c5 -15 -23 -26 -45 -17 -17 6 -17
7 2 21 21 16 37 14 43 -4z m255 -11 c-2 -6 6 -11 18 -11 15 0 19 5 15 15 -3 8
-1 15 4 15 6 0 11 -8 11 -17 1 -14 2 -15 5 -3 6 20 84 14 100 -8 10 -13 12
-13 17 2 8 21 57 22 57 1 0 -8 5 -15 10 -15 6 0 10 6 10 14 0 24 20 29 41 10
18 -16 19 -16 13 -1 -3 10 -1 17 5 17 6 0 11 -4 11 -10 0 -5 7 -7 15 -4 10 4
15 0 15 -13 0 -27 -70 -32 -70 -5 -1 15 -2 15 -10 1 -8 -13 -36 -15 -212 -12
-274 5 -292 6 -296 25 -2 13 14 15 120 12 82 -1 122 -6 121 -13z m-253 -57 c0
-9 -11 -14 -30 -14 -35 0 -40 17 -7 29 26 10 37 6 37 -15z m132 8 c20 -2 26
-6 22 -17 -7 -18 -64 -20 -65 -2 0 10 -2 10 -6 0 -2 -7 -20 -13 -39 -13 -26 0
-34 4 -34 18 0 17 18 19 122 14z m-134 -69 c-2 -13 -11 -17 -28 -15 -33 5 -38
11 -20 22 25 16 52 12 48 -7z m160 2 c10 -9 -29 -36 -41 -28 -6 3 -32 5 -59 4
-41 -1 -48 1 -48 17 0 17 7 19 71 16 39 -1 74 -5 77 -9z m120 -15 c5 -15 32
-12 32 4 0 11 11 13 48 9 26 -3 49 -9 50 -14 3 -6 9 -6 16 0 14 12 145 21 151
11 2 -3 0 -11 -4 -18 -5 -8 -52 -12 -162 -12 -85 0 -167 0 -184 0 -16 0 -38
-3 -47 -6 -10 -3 -18 -3 -18 0 0 3 8 15 18 26 14 17 25 20 57 15 22 -3 42 -10
43 -15z m-283 -51 c0 -17 -47 -19 -52 -2 -2 6 4 13 14 16 26 7 38 2 38 -14z
m96 -9 c8 -13 11 -13 19 2 9 14 20 16 63 11 29 -3 56 -12 60 -20 7 -12 11 -12
21 3 10 13 29 17 91 17 73 -1 102 -11 76 -28 -6 -3 -11 -1 -11 6 0 8 -4 8 -16
-2 -11 -9 -61 -12 -191 -11 -166 1 -204 7 -189 30 9 14 66 8 77 -8z m-95 -59
c-9 -14 -56 -14 -56 -1 0 14 43 30 54 20 4 -5 5 -13 2 -19z m116 9 c35 0 48
-4 45 -12 -3 -9 -24 -12 -73 -10 -37 2 -71 5 -73 8 -9 8 23 24 37 19 8 -3 36
-5 64 -5z m138 -2 c0 -4 7 -5 15 -2 9 4 15 0 15 -10 0 -9 -8 -16 -20 -16 -11
0 -20 4 -20 10 0 6 -9 6 -25 0 -24 -9 -42 1 -31 19 6 10 66 9 66 -1z"/>
<path d="M10240 6036 c0 -52 -3 -101 -6 -110 -4 -12 0 -16 15 -16 20 0 21 5
21 110 0 91 -3 110 -15 110 -12 0 -15 -17 -15 -94z"/>
<path d="M10230 5427 c0 -222 -3 -539 -7 -705 -5 -265 -4 -302 9 -302 13 0 16
58 21 437 12 739 10 973 -8 973 -13 0 -15 -51 -15 -403z"/>
<path d="M11130 5178 c0 -288 -3 -580 -7 -650 -5 -110 -4 -128 9 -128 13 0 16
39 21 257 4 141 7 433 7 650 0 343 -2 393 -15 393 -13 0 -15 -65 -15 -522z"/>
<path d="M11120 4115 c0 -69 3 -85 15 -85 12 0 15 16 15 85 0 69 -3 85 -15 85
-12 0 -15 -16 -15 -85z"/>
<path d="M11388 6053 c7 -3 16 -2 19 1 4 3 -2 6 -13 5 -11 0 -14 -3 -6 -6z"/>
<path d="M11340 5346 c0 -167 -2 -161 56 -141 28 9 34 40 34 181 l0 114 -45 0
-45 0 0 -154z"/>
<path d="M11447 5433 c-10 -102 -9 -175 3 -168 6 3 10 16 10 29 0 12 4 26 9
32 11 12 31 96 31 133 0 17 5 31 10 31 6 0 10 -9 10 -20 0 -11 5 -20 10 -20 6
0 10 11 10 25 0 23 -4 25 -44 25 l-43 0 -6 -67z"/>
<path d="M11564 5458 c4 -24 14 -53 22 -65 7 -12 14 -33 14 -47 0 -35 10 -56
26 -56 8 0 14 -11 15 -27 1 -17 3 -21 6 -10 5 19 35 24 32 5 -4 -32 3 -41 14
-18 l11 25 4 -27 c4 -32 22 -38 22 -8 0 25 17 26 23 3 3 -10 5 46 6 125 l1
142 -101 0 -102 0 7 -42z"/>
<path d="M11800 5341 l0 -158 33 3 c52 6 57 23 57 176 l0 138 -45 0 -45 0 0
-159z"/>
<path d="M11905 5374 c-7 -119 -3 -160 11 -118 3 10 12 33 19 49 20 45 35 107
29 117 -3 4 2 8 11 8 9 0 13 -5 9 -11 -4 -7 -1 -10 7 -7 8 3 13 15 12 27 -2
11 2 21 7 21 6 0 10 -6 10 -12 0 -28 22 -88 29 -83 5 2 12 -16 16 -41 3 -25
13 -48 21 -51 8 -3 14 -14 14 -24 0 -10 5 -19 10 -19 6 0 10 5 10 10 0 6 5 10
10 10 6 0 10 -7 10 -16 0 -8 5 -12 11 -9 6 4 8 13 5 21 -3 8 1 14 9 14 9 0 15
-9 15 -21 0 -17 3 -19 13 -10 8 6 17 8 20 4 4 -3 7 55 7 130 l0 137 -154 0
-154 0 -7 -126z"/>
<path d="M11528 5424 c-11 -11 -9 -86 2 -104 8 -13 10 -12 10 3 0 9 5 17 10
17 11 0 13 -14 10 -70 -2 -45 15 -90 34 -90 16 0 24 25 18 52 -2 9 -10 14 -18
11 -8 -3 -14 1 -14 8 -3 66 -12 116 -24 124 -8 6 -16 21 -18 34 -1 13 -6 19
-10 15z"/>
<path d="M11985 5369 c-4 -6 -4 -13 -1 -16 3 -3 -4 -17 -14 -31 -11 -13 -20
-34 -19 -46 1 -19 2 -18 8 4 4 14 14 24 21 22 7 -2 17 3 21 10 6 10 11 10 20
1 16 -16 3 -47 -16 -39 -10 4 -15 -1 -15 -14 0 -12 5 -17 14 -14 9 4 16 -6 20
-30 6 -30 11 -36 33 -36 21 0 24 3 19 23 -3 12 -6 25 -6 29 0 4 -7 5 -15 2
-12 -5 -15 2 -15 32 0 55 -10 84 -27 84 -9 0 -13 6 -9 15 6 17 -9 21 -19 4z"/>
<path d="M11488 5237 c-3 -13 -1 -32 3 -43 6 -16 8 -15 8 9 1 33 14 35 29 5
l11 -23 0 22 c1 33 -9 53 -29 53 -11 0 -19 -9 -22 -23z"/>
<path d="M11952 5200 c0 -14 2 -19 5 -12 2 6 2 18 0 25 -3 6 -5 1 -5 -13z"/>
<path d="M11641 5194 c0 -11 3 -14 6 -6 3 7 2 16 -1 19 -3 4 -6 -2 -5 -13z"/>
<path d="M11378 5157 l-38 -9 0 -64 0 -64 39 0 38 0 7 67 c4 36 3 69 -1 73 -4
4 -25 3 -45 -3z"/>
<path d="M11447 5163 c-4 -3 -7 -37 -7 -73 l0 -67 149 -8 c83 -4 155 -4 160 0
6 3 11 33 11 66 0 44 -4 59 -14 59 -8 0 -17 6 -20 13 -5 9 -7 9 -12 -1 -5 -10
-9 -10 -20 -1 -11 9 -15 6 -20 -19 -4 -21 -11 -29 -20 -25 -9 3 -15 -2 -16
-13 0 -11 -2 -25 -2 -31 -2 -17 -21 -17 -22 0 -1 6 -2 16 -3 21 0 5 -7 3 -15
-3 -11 -9 -15 -5 -20 24 -4 19 -13 35 -20 35 -8 0 -16 7 -20 15 -5 15 -76 22
-89 8z"/>
<path d="M11602 5145 c0 -16 2 -22 5 -12 2 9 2 23 0 30 -3 6 -5 -1 -5 -18z"/>
<path d="M11635 5150 c-3 -5 -1 -10 4 -10 6 0 11 5 11 10 0 6 -2 10 -4 10 -3
0 -8 -4 -11 -10z"/>
<path d="M11818 5152 c-15 -3 -18 -15 -18 -73 l0 -69 45 0 46 0 -3 72 c-3 68
-4 71 -28 72 -14 1 -33 0 -42 -2z"/>
<path d="M11907 5153 c-4 -3 -7 -37 -7 -75 l0 -68 160 0 160 0 0 72 c0 39 -3
68 -7 65 -3 -4 -12 -2 -18 3 -9 8 -14 6 -18 -5 -4 -8 -13 -12 -21 -9 -10 4
-15 -2 -18 -18 -2 -13 -10 -23 -18 -23 -8 0 -16 -10 -18 -22 -4 -28 -18 -30
-25 -3 -3 13 -11 18 -20 14 -12 -4 -17 3 -22 29 -5 24 -14 37 -28 41 -30 8
-92 7 -100 -1z"/>
<path d="M12097 5145 c-4 -8 -2 -17 3 -20 6 -4 10 3 10 14 0 25 -6 27 -13 6z"/>
<path d="M12064 5139 c-3 -6 -1 -16 5 -22 8 -8 11 -5 11 11 0 24 -5 28 -16 11z"/>
<path d="M11340 4829 c0 -84 4 -138 9 -134 5 3 12 1 15 -3 3 -5 17 -7 31 -4
l25 4 0 139 0 139 -40 0 -40 0 0 -141z"/>
<path d="M11441 4843 c1 -71 4 -119 6 -108 3 11 13 38 23 60 10 22 21 57 25
77 9 49 21 41 29 -19 3 -27 13 -61 21 -77 8 -15 15 -39 15 -52 0 -13 9 -28 21
-34 17 -10 21 -8 26 9 6 23 23 29 23 9 1 -8 6 -6 14 5 8 10 20 16 27 15 9 -2
15 8 17 25 3 28 22 38 22 11 0 -8 5 -12 10 -9 6 3 10 15 10 26 0 11 5 17 10
14 6 -4 10 27 10 84 l0 91 -155 0 -155 0 1 -127z"/>
<path d="M11800 4825 c0 -80 3 -144 8 -144 4 1 9 1 12 -1 3 -1 17 -3 32 -5
l27 -4 3 142 c2 78 3 142 3 143 0 1 -19 4 -42 8 l-43 6 0 -145z"/>
<path d="M11774 4825 c0 -77 2 -107 3 -67 2 40 2 103 0 140 -2 37 -3 4 -3 -73z"/>
<path d="M11900 4828 l0 -133 25 30 c13 17 27 38 30 48 10 27 21 20 34 -23 6
-22 16 -40 21 -40 6 0 10 -6 10 -14 0 -9 10 -13 25 -12 14 0 25 7 25 14 0 19
30 14 31 -5 0 -13 3 -11 11 7 6 15 12 20 15 12 7 -19 23 -3 23 24 0 13 5 24
10 24 6 0 10 -9 10 -20 0 -11 5 -20 10 -20 6 0 10 9 10 20 0 25 17 26 23 3 3
-10 5 35 6 100 l1 117 -160 0 -160 0 0 -132z"/>
<path d="M11485 4749 c-10 -30 0 -33 13 -4 6 14 7 25 2 25 -5 0 -12 -9 -15
-21z"/>
<path d="M11486 4693 c-11 -11 -6 -23 9 -23 8 0 15 4 15 9 0 13 -16 22 -24 14z"/>
<path d="M11444 4651 c-2 -2 -4 -35 -4 -73 l0 -68 155 0 155 0 0 64 c0 53 -3
65 -17 68 -10 2 -23 -3 -30 -12 -11 -13 -12 -13 -13 3 0 25 -18 21 -22 -5 -2
-13 -9 -22 -15 -21 -7 2 -15 -13 -19 -32 -6 -35 -24 -49 -24 -20 0 8 -4 15
-10 15 -5 0 -10 -9 -10 -20 0 -11 -4 -20 -10 -20 -5 0 -10 11 -10 24 0 36 -10
55 -26 49 -10 -4 -14 2 -14 20 0 22 -5 25 -41 29 -22 2 -42 2 -45 -1z"/>
<path d="M11358 4642 c-12 -2 -17 -17 -20 -63 l-3 -59 43 0 42 0 0 61 c0 53
-2 60 -17 55 -9 -4 -19 -3 -22 2 -3 4 -13 6 -23 4z"/>
<path d="M11773 4585 c0 -38 2 -53 4 -32 2 20 2 52 0 70 -2 17 -4 1 -4 -38z"/>
<path d="M11904 4641 c-2 -2 -4 -32 -4 -66 l0 -62 38 -7 c20 -3 92 -6 160 -6
l122 0 0 64 c0 57 -2 64 -22 69 -12 4 -25 2 -28 -4 -4 -5 -14 -7 -23 -3 -11 4
-17 1 -17 -9 0 -8 -6 -17 -14 -20 -8 -3 -17 -19 -21 -36 -7 -32 -25 -43 -25
-15 0 8 -5 12 -11 9 -6 -4 -8 -13 -5 -21 3 -8 -1 -14 -9 -14 -8 0 -15 12 -17
28 -2 15 -9 27 -17 27 -8 0 -16 11 -18 25 -6 45 -11 50 -48 48 -20 -2 -38 -5
-41 -7z"/>
<path d="M11800 4575 l0 -65 40 0 40 0 0 63 0 62 -40 2 -40 3 0 -65z"/>
<path d="M11596 4615 c-3 -8 -1 -15 4 -15 6 0 10 7 10 15 0 8 -2 15 -4 15 -2
0 -6 -7 -10 -15z"/>
<path d="M12057 4600 c-3 -11 -1 -20 4 -20 5 0 9 9 9 20 0 11 -2 20 -4 20 -2
0 -6 -9 -9 -20z"/>
<path d="M7293 4404 c1 -21 6 -30 15 -27 8 3 9 10 4 17 -5 6 -12 18 -15 26 -3
8 -4 1 -4 -16z"/>
<path d="M8447 4213 c-4 -3 -7 -11 -7 -17 0 -6 5 -5 12 2 6 6 9 14 7 17 -3 3
-9 2 -12 -2z"/>
<path d="M7720 4176 c0 -23 22 -31 35 -13 9 13 33 15 160 11 106 -2 151 -7
157 -16 6 -10 8 -10 8 0 0 7 14 12 35 12 21 0 35 -5 35 -12 0 -10 2 -10 8 -1
11 17 74 12 67 -4 -2 -7 0 -13 5 -13 6 0 10 6 10 14 0 17 60 18 72 1 5 -6 8
-6 8 1 0 12 62 17 70 5 3 -4 21 -3 40 3 30 9 11 12 -120 17 -85 3 -253 7 -372
8 -186 1 -218 -1 -218 -13z"/>
<path d="M8440 4144 c0 -8 5 -12 10 -9 6 3 10 10 10 16 0 5 -4 9 -10 9 -5 0
-10 -7 -10 -16z"/>
<path d="M7720 4119 c0 -26 21 -35 35 -16 10 14 32 16 160 12 108 -3 150 -7
156 -17 7 -10 9 -10 9 0 0 7 14 12 35 12 21 0 35 -5 35 -12 0 -10 2 -10 8 -1
12 19 74 12 67 -7 -3 -10 -1 -10 9 3 15 20 76 24 76 5 0 -9 3 -9 8 -3 9 13 64
18 71 7 3 -5 22 -4 41 2 39 11 -132 21 -512 28 -183 4 -198 3 -198 -13z"/>
<path d="M8275 4090 c-3 -5 -1 -10 4 -10 6 0 11 5 11 10 0 6 -2 10 -4 10 -3 0
-8 -4 -11 -10z"/>
<path d="M8440 4089 c0 -5 5 -7 10 -4 6 3 10 8 10 11 0 2 -4 4 -10 4 -5 0 -10
-5 -10 -11z"/>
<path d="M8440 4029 c0 -5 5 -7 10 -4 6 3 10 8 10 11 0 2 -4 4 -10 4 -5 0 -10
-5 -10 -11z"/>
<path d="M8875 4020 c-3 -5 -1 -10 4 -10 6 0 11 5 11 10 0 6 -2 10 -4 10 -3 0
-8 -4 -11 -10z"/>
<path d="M8471 3978 c0 -17 2 -19 7 -8 10 21 72 21 72 0 0 -9 3 -11 8 -5 4 6
42 12 86 13 63 3 78 1 74 -10 -4 -9 1 -14 12 -14 10 0 16 4 14 8 -3 5 3 11 13
15 32 12 -22 20 -159 22 -128 2 -128 2 -127 -21z"/>
<path d="M8275 3970 c-3 -5 -1 -10 4 -10 6 0 11 5 11 10 0 6 -2 10 -4 10 -3 0
-8 -4 -11 -10z"/>
<path d="M8440 3969 c0 -5 5 -7 10 -4 6 3 10 8 10 11 0 2 -4 4 -10 4 -5 0 -10
-5 -10 -11z"/>
<path d="M8471 3918 c1 -17 2 -19 6 -6 3 13 13 17 39 15 23 -1 33 -6 29 -14
-2 -7 0 -13 5 -13 6 0 10 3 10 8 0 4 37 8 81 10 71 3 81 1 75 -13 -5 -14 -2
-14 25 2 30 18 30 18 7 25 -13 3 -80 6 -150 7 -127 1 -128 1 -127 -21z"/>
<path d="M8275 3910 c-3 -5 -1 -10 4 -10 6 0 11 5 11 10 0 6 -2 10 -4 10 -3 0
-8 -4 -11 -10z"/>
<path d="M8275 3850 c-3 -5 -1 -10 4 -10 6 0 11 5 11 10 0 6 -2 10 -4 10 -3 0
-8 -4 -11 -10z"/>
<path d="M11946 3831 c-3 -5 -3 -17 1 -27 5 -13 3 -15 -8 -8 -8 5 -29 9 -46 9
-33 0 -42 -8 -23 -20 6 -4 8 -11 5 -16 -4 -5 -2 -9 4 -9 5 0 11 6 13 12 3 7
18 11 35 10 26 -2 31 2 35 23 5 26 -6 43 -16 26z"/>
<path d="M11975 3800 c-3 -5 -1 -10 4 -10 6 0 11 5 11 10 0 6 -2 10 -4 10 -3
0 -8 -4 -11 -10z"/>
<path d="M11480 3780 c0 -5 5 -10 11 -10 5 0 7 5 4 10 -3 6 -8 10 -11 10 -2 0
-4 -4 -4 -10z"/>
<path d="M11910 3750 c0 -16 -4 -20 -16 -16 -8 3 -12 2 -9 -4 3 -6 13 -10 21
-10 8 0 14 -4 14 -10 0 -15 17 -12 23 4 4 11 1 13 -10 9 -13 -5 -15 -2 -11 15
4 12 2 25 -3 28 -5 3 -9 -5 -9 -16z"/>
<path d="M11985 3750 c-3 -5 -1 -10 4 -10 6 0 11 5 11 10 0 6 -2 10 -4 10 -3
0 -8 -4 -11 -10z"/>
<path d="M11533 3741 c-6 -3 -2 -14 8 -25 16 -16 19 -17 19 -4 0 9 6 18 12 20
7 3 3 7 -9 10 -11 3 -25 3 -30 -1z"/>
<path d="M11585 3720 c-18 -34 -18 -40 -5 -40 6 0 10 10 10 23 1 20 2 20 11 5
5 -10 17 -18 24 -18 8 0 15 -5 15 -11 0 -6 6 -9 14 -6 17 7 36 -11 36 -35 0
-10 4 -18 9 -18 5 0 7 9 4 20 -3 11 0 20 6 20 6 0 11 5 11 11 0 5 -4 8 -9 5
-14 -9 -42 5 -35 16 4 6 -2 7 -16 3 -16 -5 -20 -4 -15 5 5 9 2 10 -14 5 -21
-6 -26 1 -22 33 3 21 -8 13 -24 -18z"/>
<path d="M11835 3739 c-4 -6 -4 -13 -1 -16 3 -4 6 -1 6 5 0 6 8 13 18 15 15 4
15 5 0 6 -9 0 -20 -4 -23 -10z"/>
<path d="M11956 3714 c-4 -10 -1 -14 6 -12 15 5 23 28 10 28 -5 0 -13 -7 -16
-16z"/>
<path d="M11825 3700 c-3 -5 -12 -7 -20 -3 -8 3 -15 1 -15 -5 0 -14 38 -22 44
-8 3 8 5 8 5 -1 1 -6 10 -9 21 -6 19 5 20 6 3 19 -22 16 -30 17 -38 4z"/>
<path d="M11825 3659 c-9 -14 -2 -20 14 -10 8 6 9 11 3 15 -6 3 -14 1 -17 -5z"/>
<path d="M11725 3651 c-3 -5 -2 -12 3 -15 5 -3 9 1 9 9 0 17 -3 19 -12 6z"/>
<path d="M11576 3641 c-4 -5 3 -7 14 -4 23 6 26 13 6 13 -8 0 -17 -4 -20 -9z"/>
<path d="M11650 3639 c0 -5 5 -7 10 -4 6 3 10 8 10 11 0 2 -4 4 -10 4 -5 0
-10 -5 -10 -11z"/>
<path d="M11760 3610 c0 -5 7 -7 15 -4 8 4 15 8 15 10 0 2 -7 4 -15 4 -8 0
-15 -4 -15 -10z"/>
<path d="M8270 3790 c0 -5 5 -10 10 -10 6 0 10 5 10 10 0 6 -4 10 -10 10 -5 0
-10 -4 -10 -10z"/>
<path d="M8595 3780 c3 -5 8 -10 11 -10 2 0 4 5 4 10 0 6 -5 10 -11 10 -5 0
-7 -4 -4 -10z"/>
<path d="M10265 3140 c3 -5 8 -10 11 -10 2 0 4 5 4 10 0 6 -5 10 -11 10 -5 0
-7 -4 -4 -10z"/>
<path d="M10295 3000 c3 -5 8 -10 11 -10 2 0 4 5 4 10 0 6 -5 10 -11 10 -5 0
-7 -4 -4 -10z"/>
<path d="M11280 526 c0 -9 5 -16 10 -16 6 0 10 4 10 9 0 6 -4 13 -10 16 -5 3
-10 -1 -10 -9z"/>
<path d="M11092 369 c-27 -10 -19 -33 9 -26 10 3 19 2 21 -3 2 -4 15 -10 31
-14 26 -6 27 -6 10 14 -10 11 -26 20 -36 20 -10 0 -15 5 -12 10 7 12 7 12 -23
-1z"/>
<path d="M11338 313 c7 -3 16 -2 19 1 4 3 -2 6 -13 5 -11 0 -14 -3 -6 -6z"/>
<path d="M10031 1474 c0 -11 3 -14 6 -6 3 7 2 16 -1 19 -3 4 -6 -2 -5 -13z"/>
<path d="M10016 1423 c-6 -14 -5 -15 5 -6 7 7 10 15 7 18 -3 3 -9 -2 -12 -12z"/>
<path d="M10435 850 c3 -5 8 -10 11 -10 2 0 4 5 4 10 0 6 -5 10 -11 10 -5 0
-7 -4 -4 -10z"/>
<path d="M10637 260 c-4 -14 -6 -38 -6 -55 1 -27 2 -26 10 10 11 45 7 85 -4
45z"/>
<path d="M17150 184 c0 -14 4 -23 10 -19 6 3 10 15 10 26 0 10 -4 19 -10 19
-5 0 -10 -12 -10 -26z"/>
<path d="M10612 175 c4 -4 3 -14 -3 -21 -6 -7 -6 -15 -1 -18 6 -3 12 3 15 14
3 11 0 23 -6 27 -7 3 -9 3 -5 -2z"/>
<path d="M17118 174 c-5 -4 -8 -25 -8 -48 0 -28 3 -37 11 -29 6 6 9 27 7 48
-2 20 -6 33 -10 29z"/>
<path d="M17078 110 c-13 -30 -15 -58 -7 -71 6 -11 9 -10 14 3 8 21 1 88 -7
68z"/>
</g>
</svg>
